<?xml version="1.0" encoding="UTF-8" standalone="no"?>
<!-- Generated by Visual Integrity Suite 6.5.3 -->
<svg
   xmlns:dc="http://purl.org/dc/elements/1.1/"
   xmlns:cc="http://web.resource.org/cc/"
   xmlns:rdf="http://www.w3.org/1999/02/22-rdf-syntax-ns#"
   xmlns:svg="http://www.w3.org/2000/svg"
   xmlns="http://www.w3.org/2000/svg"
   xmlns:sodipodi="http://sodipodi.sourceforge.net/DTD/sodipodi-0.dtd"
   xmlns:inkscape="http://www.inkscape.org/namespaces/inkscape"
   xml:space="preserve"
   width="408.42001"
   height="730.97998"
   id="svg2"
   sodipodi:version="0.32"
   inkscape:version="0.44+devel"
   sodipodi:docname="rflogo.svg"
   inkscape:output_extension="org.inkscape.output.svg.inkscape"
   sodipodi:docbase="/home/roberth/dokumenter/hb/trunk"
   version="1.0"
   sodipodi:modified="true"><metadata
   id="metadata315"><rdf:RDF><cc:Work
       rdf:about=""><dc:format>image/svg+xml</dc:format><dc:type
         rdf:resource="http://purl.org/dc/dcmitype/StillImage" /><dc:title>Realistforeningens logo</dc:title><dc:date>1859-04-18</dc:date><dc:creator><cc:Agent><dc:title>Realistforeningen</dc:title></cc:Agent></dc:creator><dc:rights><cc:Agent><dc:title>Realistforeningen</dc:title></cc:Agent></dc:rights><dc:description>Realistforeningens logo består av en benzenring (hexagon med alternerende enkelt- og dobbeltstreker) ytterst, et elektronskall med åtte elektroner og et lukket linjeintegral-tegn</dc:description><dc:language /><dc:contributor><cc:Agent><dc:title>Trond Ivar Hulaas: PostScript-versjon
TT: Modifisering
Helge J. Bjørnhaug: Modifisering
Sturle Sunde: PS til EPS
Robert Bauck Hamar: EPS til SVG med Integraltegnet fra Ghostscripts Symbol-font</dc:title></cc:Agent></dc:contributor><cc:license
         rdf:resource="" /></cc:Work></rdf:RDF></metadata><defs
   id="defs313" /><sodipodi:namedview
   inkscape:window-height="948"
   inkscape:window-width="1272"
   inkscape:pageshadow="2"
   inkscape:pageopacity="0"
   guidetolerance="10.0"
   gridtolerance="10.0"
   objecttolerance="10.0"
   borderopacity="1.0"
   bordercolor="#666666"
   pagecolor="white"
   id="base"
   inkscape:zoom="0.93751923"
   inkscape:cx="294.80313"
   inkscape:cy="376.48272"
   inkscape:window-x="0"
   inkscape:window-y="0"
   inkscape:current-layer="svg2"
   width="115.26521mm"
   height="206.2988mm"
   borderlayer="false"
   inkscape:showpageshadow="false"
   showborder="false"
   units="mm" />

<g
   id="Linjeintegral"
   inkscape:label="#g2297"
   transform="translate(-5.06,0)"><path
     inkscape:label="Sirkel"
     id="Sirkel"
     d="M 223.22,365.58 C 223.22,352.26 212.6,341.46 199.28,341.46 C 185.96,341.46 175.34,352.26 175.34,365.58 C 175.34,378.72 185.96,389.52 199.28,389.52 C 212.6,389.52 223.22,378.72 223.22,365.58 z "
     style="fill:none;fill-rule:nonzero;stroke:black;stroke-width:6.84000015;stroke-linecap:butt;stroke-linejoin:miter" /><path
     inkscape:label="Integral"
     id="Integral"
     d="M 216.03957,235.08 C 226.29957,235.08 233.67957,241.92 233.67957,249.3 C 233.67957,257.04 226.29957,260.82 220.17957,260.82 C 213.33957,260.82 212.25957,254.7 207.57957,254.7 C 205.05957,254.7 202.53957,255.96 202.53957,263.7 C 202.53957,263.7 207.39957,320.76 207.57957,337.86 L 207.39957,405.72 C 206.85957,439.38 201.81957,478.62 192.09957,489.6 C 186.87957,495.54 177.15957,496.8 174.81957,496.8 C 164.55957,496.8 159.69957,486.18 159.69957,481.32 C 159.69957,476.28 165.09957,470.34 171.21957,470.34 C 178.23957,470.34 181.29957,478.8 184.53957,478.8 C 190.65957,478.8 191.55957,460.62 191.55957,453.42 C 191.55957,435.78 189.75957,418.32 189.75957,401.22 L 189.75957,318.42 C 189.75957,259.56 198.93957,235.08 216.03957,235.08 z "
     style="fill:black;fill-rule:nonzero;stroke:none;stroke-width:6.84000015;stroke-linecap:butt;stroke-linejoin:miter" /></g>
<polygon
   style="fill:black;fill-rule:nonzero;stroke:none;stroke-width:6.84000015;stroke-linecap:butt;stroke-linejoin:miter"
   points="12.66,228.23 4.92,226.61 4.92,225.71 5.64,224.81 205.62,8.81 209.22,5.03 212.64,8.81 212.64,12.23 12.66,228.23 "
   id="polygon8"
   transform="translate(-4.92,-5.03)" />
<polygon
   style="fill:black;fill-rule:nonzero;stroke:none;stroke-width:6.84000015;stroke-linecap:butt;stroke-linejoin:miter"
   points="205.62,12.23 205.62,8.81 209.22,5.03 212.64,8.81 412.62,224.81 413.34,225.71 413.34,226.61 405.6,228.23 205.62,12.23 "
   id="polygon10"
   transform="translate(-4.92,-5.03)" />
<polygon
   style="fill:black;fill-rule:nonzero;stroke:none;stroke-width:6.84000015;stroke-linecap:butt;stroke-linejoin:miter"
   points="404.88,226.61 412.62,224.81 413.34,225.71 413.34,226.61 413.34,514.61 413.34,515.51 412.62,516.23 404.88,514.61 404.88,226.61 "
   id="polygon12"
   transform="translate(-4.92,-5.03)" />
<polygon
   style="fill:black;fill-rule:nonzero;stroke:none;stroke-width:6.84000015;stroke-linecap:butt;stroke-linejoin:miter"
   points="405.6,512.81 413.34,514.61 413.34,515.51 412.62,516.23 212.64,732.23 209.22,736.01 205.62,732.23 205.62,728.81 405.6,512.81 "
   id="polygon14"
   transform="translate(-4.92,-5.03)" />
<polygon
   style="fill:black;fill-rule:nonzero;stroke:none;stroke-width:6.84000015;stroke-linecap:butt;stroke-linejoin:miter"
   points="212.64,728.81 212.64,732.23 209.22,736.01 205.62,732.23 5.64,516.23 4.92,515.51 4.92,514.61 12.66,512.81 212.64,728.81 "
   id="polygon16"
   transform="translate(-4.92,-5.03)" />
<polygon
   style="fill:black;fill-rule:nonzero;stroke:none;stroke-width:6.84000015;stroke-linecap:butt;stroke-linejoin:miter"
   points="13.38,514.61 5.64,516.23 4.92,515.51 4.92,514.61 4.92,226.61 4.92,225.71 5.64,224.81 13.38,226.61 13.38,514.61 "
   id="polygon18"
   transform="translate(-4.92,-5.03)" />
<polygon
   style="fill:black;fill-rule:nonzero;stroke:none;stroke-width:6.84000015;stroke-linecap:butt;stroke-linejoin:miter"
   points="12.66,271.43 5.64,268.01 225.6,30.41 232.62,33.83 12.66,271.43 "
   id="polygon20"
   transform="translate(-4.92,-5.03)" />
<polygon
   style="fill:black;fill-rule:nonzero;stroke:none;stroke-width:6.84000015;stroke-linecap:butt;stroke-linejoin:miter"
   points="5.64,473.03 12.66,469.61 232.62,707.21 225.6,710.63 5.64,473.03 "
   id="polygon22"
   transform="translate(-4.92,-5.03)" />
<polygon
   style="fill:black;fill-rule:nonzero;stroke:none;stroke-width:6.84000015;stroke-linecap:butt;stroke-linejoin:miter"
   points="372.84,192.05 381.48,192.05 381.48,192.05 381.48,549.17 372.84,549.17 372.84,549.17 372.84,192.05 "
   id="polygon24"
   transform="translate(-4.92,-5.03)" />
<polygon
   style="fill:black;fill-rule:nonzero;stroke:none;stroke-width:6.84000015;stroke-linecap:butt;stroke-linejoin:miter"
   points="381.48,549.17 372.84,549.17 372.84,549.17 372.84,192.05 381.48,192.05 381.48,192.05 381.48,549.17 "
   id="polygon26"
   transform="translate(-4.92,-5.03)" />
<polygon
   style="fill:black;fill-rule:nonzero;stroke:none;stroke-width:6.84000015;stroke-linecap:butt;stroke-linejoin:miter"
   points="330.54,370.43 330.54,370.61 330.54,370.61 323.7,370.61 323.52,360.17 330.36,359.63 330.36,359.81 330.36,359.81 330.54,370.43 "
   id="polygon28"
   transform="translate(-4.92,-5.03)" />
<polygon
   style="fill:black;fill-rule:nonzero;stroke:none;stroke-width:6.84000015;stroke-linecap:butt;stroke-linejoin:miter"
   points="330.36,359.63 330.36,359.81 330.36,359.81 323.52,360.35 322.98,350.09 329.82,349.01 329.82,349.01 329.82,349.19 330.36,359.63 "
   id="polygon30"
   transform="translate(-4.92,-5.03)" />
<polygon
   style="fill:black;fill-rule:nonzero;stroke:none;stroke-width:6.84000015;stroke-linecap:butt;stroke-linejoin:miter"
   points="329.82,349.01 329.82,349.01 329.82,349.19 322.98,350.27 322.08,340.01 328.74,338.39 328.92,338.57 328.92,338.75 329.82,349.01 "
   id="polygon32"
   transform="translate(-4.92,-5.03)" />
<polygon
   style="fill:black;fill-rule:nonzero;stroke:none;stroke-width:6.84000015;stroke-linecap:butt;stroke-linejoin:miter"
   points="328.74,338.39 328.92,338.57 328.92,338.75 322.08,340.37 320.82,330.29 327.48,328.13 327.48,328.31 327.48,328.49 328.74,338.39 "
   id="polygon34"
   transform="translate(-4.92,-5.03)" />
<polygon
   style="fill:black;fill-rule:nonzero;stroke:none;stroke-width:6.84000015;stroke-linecap:butt;stroke-linejoin:miter"
   points="327.48,328.13 327.48,328.31 327.48,328.49 320.82,330.65 319.2,320.75 325.86,318.05 325.86,318.23 325.86,318.23 327.48,328.13 "
   id="polygon36"
   transform="translate(-4.92,-5.03)" />
<polygon
   style="fill:black;fill-rule:nonzero;stroke:none;stroke-width:6.84000015;stroke-linecap:butt;stroke-linejoin:miter"
   points="325.86,318.05 325.86,318.23 325.86,318.23 319.38,320.93 317.4,311.39 323.88,308.15 323.88,308.33 323.88,308.33 325.86,318.05 "
   id="polygon38"
   transform="translate(-4.92,-5.03)" />
<polygon
   style="fill:black;fill-rule:nonzero;stroke:none;stroke-width:6.84000015;stroke-linecap:butt;stroke-linejoin:miter"
   points="323.88,308.15 323.88,308.33 323.88,308.33 317.4,311.57 315.24,302.21 321.54,298.43 321.54,298.61 321.54,298.79 323.88,308.15 "
   id="polygon40"
   transform="translate(-4.92,-5.03)" />
<polygon
   style="fill:black;fill-rule:nonzero;stroke:none;stroke-width:6.84000015;stroke-linecap:butt;stroke-linejoin:miter"
   points="321.54,298.43 321.54,298.61 321.54,298.79 315.24,302.39 312.72,293.21 318.84,289.07 318.84,289.07 318.84,289.25 321.54,298.43 "
   id="polygon42"
   transform="translate(-4.92,-5.03)" />
<polygon
   style="fill:black;fill-rule:nonzero;stroke:none;stroke-width:6.84000015;stroke-linecap:butt;stroke-linejoin:miter"
   points="318.84,289.07 318.84,289.07 318.84,289.25 312.72,293.57 309.84,284.57 315.78,279.89 315.96,279.89 315.96,280.07 318.84,289.07 "
   id="polygon44"
   transform="translate(-4.92,-5.03)" />
<polygon
   style="fill:black;fill-rule:nonzero;stroke:none;stroke-width:6.84000015;stroke-linecap:butt;stroke-linejoin:miter"
   points="315.78,279.89 315.96,279.89 315.96,280.07 309.84,284.75 306.78,276.11 312.54,270.89 312.54,271.07 312.72,271.25 315.78,279.89 "
   id="polygon46"
   transform="translate(-4.92,-5.03)" />
<polygon
   style="fill:black;fill-rule:nonzero;stroke:none;stroke-width:6.84000015;stroke-linecap:butt;stroke-linejoin:miter"
   points="312.54,270.89 312.54,271.07 312.72,271.25 306.78,276.29 303.36,268.01 308.94,262.43 309.12,262.43 309.12,262.61 312.54,270.89 "
   id="polygon48"
   transform="translate(-4.92,-5.03)" />
<polygon
   style="fill:black;fill-rule:nonzero;stroke:none;stroke-width:6.84000015;stroke-linecap:butt;stroke-linejoin:miter"
   points="308.94,262.43 309.12,262.43 309.12,262.61 303.36,268.19 299.76,260.09 305.16,253.97 305.16,254.15 305.34,254.33 308.94,262.43 "
   id="polygon50"
   transform="translate(-4.92,-5.03)" />
<polygon
   style="fill:black;fill-rule:nonzero;stroke:none;stroke-width:6.84000015;stroke-linecap:butt;stroke-linejoin:miter"
   points="305.16,253.97 305.16,254.15 305.34,254.33 299.76,260.27 295.8,252.53 301.02,246.05 301.02,246.23 301.2,246.23 305.16,253.97 "
   id="polygon52"
   transform="translate(-4.92,-5.03)" />
<polygon
   style="fill:black;fill-rule:nonzero;stroke:none;stroke-width:6.84000015;stroke-linecap:butt;stroke-linejoin:miter"
   points="301.02,246.05 301.02,246.23 301.2,246.23 295.8,252.71 291.66,245.15 296.7,238.31 296.7,238.49 296.7,238.67 301.02,246.05 "
   id="polygon54"
   transform="translate(-4.92,-5.03)" />
<polygon
   style="fill:black;fill-rule:nonzero;stroke:none;stroke-width:6.84000015;stroke-linecap:butt;stroke-linejoin:miter"
   points="296.7,238.31 296.7,238.49 296.7,238.67 291.66,245.51 287.16,238.31 292.02,231.11 292.02,231.11 292.2,231.29 296.7,238.31 "
   id="polygon56"
   transform="translate(-4.92,-5.03)" />
<polygon
   style="fill:black;fill-rule:nonzero;stroke:none;stroke-width:6.84000015;stroke-linecap:butt;stroke-linejoin:miter"
   points="292.02,231.11 292.02,231.11 292.2,231.29 287.34,238.49 282.66,231.65 287.16,224.09 287.16,224.27 287.34,224.27 292.02,231.11 "
   id="polygon58"
   transform="translate(-4.92,-5.03)" />
<polygon
   style="fill:black;fill-rule:nonzero;stroke:none;stroke-width:6.84000015;stroke-linecap:butt;stroke-linejoin:miter"
   points="287.16,224.09 287.16,224.27 287.34,224.27 282.66,231.83 277.8,225.53 281.94,217.61 282.12,217.61 282.12,217.79 287.16,224.09 "
   id="polygon60"
   transform="translate(-4.92,-5.03)" />
<polygon
   style="fill:black;fill-rule:nonzero;stroke:none;stroke-width:6.84000015;stroke-linecap:butt;stroke-linejoin:miter"
   points="281.94,217.61 282.12,217.61 282.12,217.79 277.8,225.71 272.76,219.59 276.72,211.49 276.72,211.49 276.9,211.49 281.94,217.61 "
   id="polygon62"
   transform="translate(-4.92,-5.03)" />
<polygon
   style="fill:black;fill-rule:nonzero;stroke:none;stroke-width:6.84000015;stroke-linecap:butt;stroke-linejoin:miter"
   points="276.72,211.49 276.72,211.49 276.9,211.49 272.76,219.77 267.36,214.19 271.14,205.73 271.14,205.73 271.32,205.73 276.72,211.49 "
   id="polygon64"
   transform="translate(-4.92,-5.03)" />
<polygon
   style="fill:black;fill-rule:nonzero;stroke:none;stroke-width:6.84000015;stroke-linecap:butt;stroke-linejoin:miter"
   points="271.14,205.73 271.14,205.73 271.32,205.73 267.54,214.37 261.96,209.15 265.38,200.33 265.56,200.33 265.56,200.51 271.14,205.73 "
   id="polygon66"
   transform="translate(-4.92,-5.03)" />
<polygon
   style="fill:black;fill-rule:nonzero;stroke:none;stroke-width:6.84000015;stroke-linecap:butt;stroke-linejoin:miter"
   points="265.38,200.33 265.56,200.33 265.56,200.51 262.14,209.15 256.38,204.47 259.44,195.47 259.62,195.47 259.62,195.47 265.38,200.33 "
   id="polygon68"
   transform="translate(-4.92,-5.03)" />
<polygon
   style="fill:black;fill-rule:nonzero;stroke:none;stroke-width:6.84000015;stroke-linecap:butt;stroke-linejoin:miter"
   points="259.44,195.47 259.62,195.47 259.62,195.47 256.56,204.65 250.62,200.15 253.32,190.97 253.5,190.97 253.5,190.97 259.44,195.47 "
   id="polygon70"
   transform="translate(-4.92,-5.03)" />
<polygon
   style="fill:black;fill-rule:nonzero;stroke:none;stroke-width:6.84000015;stroke-linecap:butt;stroke-linejoin:miter"
   points="253.32,190.97 253.5,190.97 253.5,190.97 250.62,200.33 244.5,196.37 247.02,187.01 247.2,187.01 247.2,187.01 253.32,190.97 "
   id="polygon72"
   transform="translate(-4.92,-5.03)" />
<polygon
   style="fill:black;fill-rule:nonzero;stroke:none;stroke-width:6.84000015;stroke-linecap:butt;stroke-linejoin:miter"
   points="247.02,187.01 247.2,187.01 247.2,187.01 244.68,196.55 238.38,193.13 240.54,183.41 240.72,183.41 240.72,183.59 247.02,187.01 "
   id="polygon74"
   transform="translate(-4.92,-5.03)" />
<polygon
   style="fill:black;fill-rule:nonzero;stroke:none;stroke-width:6.84000015;stroke-linecap:butt;stroke-linejoin:miter"
   points="240.54,183.41 240.72,183.41 240.72,183.59 238.56,193.13 232.26,190.25 234.06,180.53 234.06,180.53 234.24,180.53 240.54,183.41 "
   id="polygon76"
   transform="translate(-4.92,-5.03)" />
<polygon
   style="fill:black;fill-rule:nonzero;stroke:none;stroke-width:6.84000015;stroke-linecap:butt;stroke-linejoin:miter"
   points="234.06,180.53 234.06,180.53 234.24,180.53 232.44,190.43 225.78,187.91 227.22,178.01 227.4,178.01 227.4,178.01 234.06,180.53 "
   id="polygon78"
   transform="translate(-4.92,-5.03)" />
<polygon
   style="fill:black;fill-rule:nonzero;stroke:none;stroke-width:6.84000015;stroke-linecap:butt;stroke-linejoin:miter"
   points="227.22,178.01 227.4,178.01 227.4,178.01 225.96,187.91 219.3,186.11 220.38,176.03 220.38,176.03 220.56,176.03 227.22,178.01 "
   id="polygon80"
   transform="translate(-4.92,-5.03)" />
<polygon
   style="fill:black;fill-rule:nonzero;stroke:none;stroke-width:6.84000015;stroke-linecap:butt;stroke-linejoin:miter"
   points="220.38,176.03 220.38,176.03 220.56,176.03 219.48,186.11 212.64,184.67 213.36,174.59 213.54,174.59 213.54,174.59 220.38,176.03 "
   id="polygon82"
   transform="translate(-4.92,-5.03)" />
<polygon
   style="fill:black;fill-rule:nonzero;stroke:none;stroke-width:6.84000015;stroke-linecap:butt;stroke-linejoin:miter"
   points="213.36,174.59 213.54,174.59 213.54,174.59 212.82,184.67 205.98,183.95 206.34,173.69 206.34,173.69 206.52,173.69 213.36,174.59 "
   id="polygon84"
   transform="translate(-4.92,-5.03)" />
<polygon
   style="fill:black;fill-rule:nonzero;stroke:none;stroke-width:6.84000015;stroke-linecap:butt;stroke-linejoin:miter"
   points="206.34,173.69 206.34,173.69 206.52,173.69 206.16,183.95 199.14,183.59 199.14,173.51 199.14,173.51 199.32,173.51 206.34,173.69 "
   id="polygon86"
   transform="translate(-4.92,-5.03)" />
<polygon
   style="fill:black;fill-rule:nonzero;stroke:none;stroke-width:6.84000015;stroke-linecap:butt;stroke-linejoin:miter"
   points="199.14,173.51 199.14,173.51 199.32,173.51 199.32,183.59 192.3,183.95 191.94,173.69 191.94,173.69 192.12,173.69 199.14,173.51 "
   id="polygon88"
   transform="translate(-4.92,-5.03)" />
<polygon
   style="fill:black;fill-rule:nonzero;stroke:none;stroke-width:6.84000015;stroke-linecap:butt;stroke-linejoin:miter"
   points="191.94,173.69 191.94,173.69 192.12,173.69 192.48,183.95 185.46,184.67 184.74,174.59 184.92,174.59 184.92,174.59 191.94,173.69 "
   id="polygon90"
   transform="translate(-4.92,-5.03)" />
<polygon
   style="fill:black;fill-rule:nonzero;stroke:none;stroke-width:6.84000015;stroke-linecap:butt;stroke-linejoin:miter"
   points="184.74,174.59 184.92,174.59 184.92,174.59 185.64,184.67 178.8,186.11 177.72,176.03 177.9,176.03 177.9,176.03 184.74,174.59 "
   id="polygon92"
   transform="translate(-4.92,-5.03)" />
<polygon
   style="fill:black;fill-rule:nonzero;stroke:none;stroke-width:6.84000015;stroke-linecap:butt;stroke-linejoin:miter"
   points="177.72,176.03 177.9,176.03 177.9,176.03 178.98,186.11 172.32,187.91 170.88,178.01 171.06,178.01 171.06,178.01 177.72,176.03 "
   id="polygon94"
   transform="translate(-4.92,-5.03)" />
<polygon
   style="fill:black;fill-rule:nonzero;stroke:none;stroke-width:6.84000015;stroke-linecap:butt;stroke-linejoin:miter"
   points="170.88,178.01 171.06,178.01 171.06,178.01 172.5,187.91 166.02,190.43 164.22,180.53 164.22,180.53 164.4,180.53 170.88,178.01 "
   id="polygon96"
   transform="translate(-4.92,-5.03)" />
<polygon
   style="fill:black;fill-rule:nonzero;stroke:none;stroke-width:6.84000015;stroke-linecap:butt;stroke-linejoin:miter"
   points="164.22,180.53 164.22,180.53 164.4,180.53 166.2,190.25 159.72,193.13 157.56,183.59 157.56,183.41 157.74,183.41 164.22,180.53 "
   id="polygon98"
   transform="translate(-4.92,-5.03)" />
<polygon
   style="fill:black;fill-rule:nonzero;stroke:none;stroke-width:6.84000015;stroke-linecap:butt;stroke-linejoin:miter"
   points="157.56,183.59 157.56,183.41 157.74,183.41 159.9,193.13 153.6,196.55 151.08,187.01 151.26,187.01 151.26,187.01 157.56,183.59 "
   id="polygon100"
   transform="translate(-4.92,-5.03)" />
<polygon
   style="fill:black;fill-rule:nonzero;stroke:none;stroke-width:6.84000015;stroke-linecap:butt;stroke-linejoin:miter"
   points="151.08,187.01 151.26,187.01 151.26,187.01 153.78,196.37 147.66,200.33 144.78,190.97 144.96,190.97 144.96,190.97 151.08,187.01 "
   id="polygon102"
   transform="translate(-4.92,-5.03)" />
<polygon
   style="fill:black;fill-rule:nonzero;stroke:none;stroke-width:6.84000015;stroke-linecap:butt;stroke-linejoin:miter"
   points="144.78,190.97 144.96,190.97 144.96,190.97 147.84,200.15 141.9,204.65 138.66,195.47 138.84,195.47 138.84,195.47 144.78,190.97 "
   id="polygon104"
   transform="translate(-4.92,-5.03)" />
<polygon
   style="fill:black;fill-rule:nonzero;stroke:none;stroke-width:6.84000015;stroke-linecap:butt;stroke-linejoin:miter"
   points="138.66,195.47 138.84,195.47 138.84,195.47 141.9,204.47 136.14,209.15 132.72,200.51 132.9,200.33 132.9,200.33 138.66,195.47 "
   id="polygon106"
   transform="translate(-4.92,-5.03)" />
<polygon
   style="fill:black;fill-rule:nonzero;stroke:none;stroke-width:6.84000015;stroke-linecap:butt;stroke-linejoin:miter"
   points="132.72,200.51 132.9,200.33 132.9,200.33 136.32,209.15 130.74,214.37 126.96,205.73 127.14,205.73 127.14,205.73 132.72,200.51 "
   id="polygon108"
   transform="translate(-4.92,-5.03)" />
<polygon
   style="fill:black;fill-rule:nonzero;stroke:none;stroke-width:6.84000015;stroke-linecap:butt;stroke-linejoin:miter"
   points="126.96,205.73 127.14,205.73 127.14,205.73 130.92,214.19 125.52,219.77 121.56,211.49 121.56,211.49 121.56,211.49 126.96,205.73 "
   id="polygon110"
   transform="translate(-4.92,-5.03)" />
<polygon
   style="fill:black;fill-rule:nonzero;stroke:none;stroke-width:6.84000015;stroke-linecap:butt;stroke-linejoin:miter"
   points="121.56,211.49 121.56,211.49 121.56,211.49 125.7,219.59 120.48,225.71 116.16,217.79 116.16,217.61 116.34,217.61 121.56,211.49 "
   id="polygon112"
   transform="translate(-4.92,-5.03)" />
<polygon
   style="fill:black;fill-rule:nonzero;stroke:none;stroke-width:6.84000015;stroke-linecap:butt;stroke-linejoin:miter"
   points="116.16,217.79 116.16,217.61 116.34,217.61 120.66,225.53 115.62,231.83 111.12,224.27 111.12,224.27 111.12,224.09 116.16,217.79 "
   id="polygon114"
   transform="translate(-4.92,-5.03)" />
<polygon
   style="fill:black;fill-rule:nonzero;stroke:none;stroke-width:6.84000015;stroke-linecap:butt;stroke-linejoin:miter"
   points="111.12,224.27 111.12,224.27 111.12,224.09 115.8,231.65 110.94,238.49 106.26,231.29 106.26,231.11 106.26,231.11 111.12,224.27 "
   id="polygon116"
   transform="translate(-4.92,-5.03)" />
<polygon
   style="fill:black;fill-rule:nonzero;stroke:none;stroke-width:6.84000015;stroke-linecap:butt;stroke-linejoin:miter"
   points="106.26,231.29 106.26,231.11 106.26,231.11 111.12,238.31 106.62,245.51 101.58,238.67 101.58,238.49 101.76,238.31 106.26,231.29 "
   id="polygon118"
   transform="translate(-4.92,-5.03)" />
<polygon
   style="fill:black;fill-rule:nonzero;stroke:none;stroke-width:6.84000015;stroke-linecap:butt;stroke-linejoin:miter"
   points="101.58,238.67 101.58,238.49 101.76,238.31 106.8,245.15 102.48,252.71 97.26,246.23 97.26,246.23 97.26,246.05 101.58,238.67 "
   id="polygon120"
   transform="translate(-4.92,-5.03)" />
<polygon
   style="fill:black;fill-rule:nonzero;stroke:none;stroke-width:6.84000015;stroke-linecap:butt;stroke-linejoin:miter"
   points="97.26,246.23 97.26,246.23 97.26,246.05 102.48,252.53 98.52,260.27 93.12,254.33 93.12,254.15 93.12,253.97 97.26,246.23 "
   id="polygon122"
   transform="translate(-4.92,-5.03)" />
<polygon
   style="fill:black;fill-rule:nonzero;stroke:none;stroke-width:6.84000015;stroke-linecap:butt;stroke-linejoin:miter"
   points="93.12,254.33 93.12,254.15 93.12,253.97 98.7,260.09 94.92,268.19 89.16,262.61 89.34,262.43 89.34,262.43 93.12,254.33 "
   id="polygon124"
   transform="translate(-4.92,-5.03)" />
<polygon
   style="fill:black;fill-rule:nonzero;stroke:none;stroke-width:6.84000015;stroke-linecap:butt;stroke-linejoin:miter"
   points="89.16,262.61 89.34,262.43 89.34,262.43 94.92,268.01 91.5,276.29 85.74,271.25 85.74,271.07 85.74,270.89 89.16,262.61 "
   id="polygon126"
   transform="translate(-4.92,-5.03)" />
<polygon
   style="fill:black;fill-rule:nonzero;stroke:none;stroke-width:6.84000015;stroke-linecap:butt;stroke-linejoin:miter"
   points="85.74,271.25 85.74,271.07 85.74,270.89 91.68,276.11 88.44,284.75 82.32,280.07 82.5,279.89 82.5,279.89 85.74,271.25 "
   id="polygon128"
   transform="translate(-4.92,-5.03)" />
<polygon
   style="fill:black;fill-rule:nonzero;stroke:none;stroke-width:6.84000015;stroke-linecap:butt;stroke-linejoin:miter"
   points="82.32,280.07 82.5,279.89 82.5,279.89 88.44,284.57 85.56,293.57 79.44,289.25 79.44,289.07 79.44,289.07 82.32,280.07 "
   id="polygon130"
   transform="translate(-4.92,-5.03)" />
<polygon
   style="fill:black;fill-rule:nonzero;stroke:none;stroke-width:6.84000015;stroke-linecap:butt;stroke-linejoin:miter"
   points="79.44,289.25 79.44,289.07 79.44,289.07 85.74,293.21 83.04,302.39 76.74,298.79 76.74,298.61 76.92,298.43 79.44,289.25 "
   id="polygon132"
   transform="translate(-4.92,-5.03)" />
<polygon
   style="fill:black;fill-rule:nonzero;stroke:none;stroke-width:6.84000015;stroke-linecap:butt;stroke-linejoin:miter"
   points="76.74,298.79 76.74,298.61 76.92,298.43 83.22,302.21 80.88,311.57 74.4,308.33 74.4,308.33 74.4,308.15 76.74,298.79 "
   id="polygon134"
   transform="translate(-4.92,-5.03)" />
<polygon
   style="fill:black;fill-rule:nonzero;stroke:none;stroke-width:6.84000015;stroke-linecap:butt;stroke-linejoin:miter"
   points="74.4,308.33 74.4,308.33 74.4,308.15 80.88,311.39 78.9,320.93 72.42,318.23 72.42,318.23 72.42,318.05 74.4,308.33 "
   id="polygon136"
   transform="translate(-4.92,-5.03)" />
<polygon
   style="fill:black;fill-rule:nonzero;stroke:none;stroke-width:6.84000015;stroke-linecap:butt;stroke-linejoin:miter"
   points="72.42,318.23 72.42,318.23 72.42,318.05 79.08,320.75 77.46,330.65 70.8,328.49 70.8,328.31 70.8,328.13 72.42,318.23 "
   id="polygon138"
   transform="translate(-4.92,-5.03)" />
<polygon
   style="fill:black;fill-rule:nonzero;stroke:none;stroke-width:6.84000015;stroke-linecap:butt;stroke-linejoin:miter"
   points="70.8,328.49 70.8,328.31 70.8,328.13 77.46,330.29 76.2,340.37 69.54,338.75 69.54,338.57 69.54,338.39 70.8,328.49 "
   id="polygon140"
   transform="translate(-4.92,-5.03)" />
<polygon
   style="fill:black;fill-rule:nonzero;stroke:none;stroke-width:6.84000015;stroke-linecap:butt;stroke-linejoin:miter"
   points="69.54,338.75 69.54,338.57 69.54,338.39 76.2,340.01 75.3,350.27 68.46,349.19 68.46,349.01 68.46,349.01 69.54,338.75 "
   id="polygon142"
   transform="translate(-4.92,-5.03)" />
<polygon
   style="fill:black;fill-rule:nonzero;stroke:none;stroke-width:6.84000015;stroke-linecap:butt;stroke-linejoin:miter"
   points="68.46,349.19 68.46,349.01 68.46,349.01 75.3,350.09 74.76,360.35 67.92,359.81 67.92,359.81 67.92,359.63 68.46,349.19 "
   id="polygon144"
   transform="translate(-4.92,-5.03)" />
<polygon
   style="fill:black;fill-rule:nonzero;stroke:none;stroke-width:6.84000015;stroke-linecap:butt;stroke-linejoin:miter"
   points="67.92,359.81 67.92,359.81 67.92,359.63 74.76,360.17 74.58,370.61 67.74,370.61 67.74,370.61 67.74,370.43 67.92,359.81 "
   id="polygon146"
   transform="translate(-4.92,-5.03)" />
<polygon
   style="fill:black;fill-rule:nonzero;stroke:none;stroke-width:6.84000015;stroke-linecap:butt;stroke-linejoin:miter"
   points="67.74,370.61 67.74,370.61 67.74,370.43 74.58,370.43 74.76,380.87 67.92,381.41 67.92,381.41 67.92,381.23 67.74,370.61 "
   id="polygon148"
   transform="translate(-4.92,-5.03)" />
<polygon
   style="fill:black;fill-rule:nonzero;stroke:none;stroke-width:6.84000015;stroke-linecap:butt;stroke-linejoin:miter"
   points="67.92,381.41 67.92,381.41 67.92,381.23 74.76,380.69 75.3,391.13 68.46,392.21 68.46,392.03 68.46,391.85 67.92,381.41 "
   id="polygon150"
   transform="translate(-4.92,-5.03)" />
<polygon
   style="fill:black;fill-rule:nonzero;stroke:none;stroke-width:6.84000015;stroke-linecap:butt;stroke-linejoin:miter"
   points="68.46,392.21 68.46,392.03 68.46,391.85 75.3,390.77 76.2,401.03 69.54,402.65 69.54,402.47 69.54,402.29 68.46,392.21 "
   id="polygon152"
   transform="translate(-4.92,-5.03)" />
<polygon
   style="fill:black;fill-rule:nonzero;stroke:none;stroke-width:6.84000015;stroke-linecap:butt;stroke-linejoin:miter"
   points="69.54,402.65 69.54,402.47 69.54,402.29 76.2,400.67 77.46,410.75 70.8,412.91 70.8,412.91 70.8,412.73 69.54,402.65 "
   id="polygon154"
   transform="translate(-4.92,-5.03)" />
<polygon
   style="fill:black;fill-rule:nonzero;stroke:none;stroke-width:6.84000015;stroke-linecap:butt;stroke-linejoin:miter"
   points="70.8,412.91 70.8,412.91 70.8,412.73 77.46,410.57 79.08,420.29 72.42,422.99 72.42,422.99 72.42,422.81 70.8,412.91 "
   id="polygon156"
   transform="translate(-4.92,-5.03)" />
<polygon
   style="fill:black;fill-rule:nonzero;stroke:none;stroke-width:6.84000015;stroke-linecap:butt;stroke-linejoin:miter"
   points="72.42,422.99 72.42,422.99 72.42,422.81 78.9,420.11 80.88,429.83 74.4,432.89 74.4,432.89 74.4,432.71 72.42,422.99 "
   id="polygon158"
   transform="translate(-4.92,-5.03)" />
<polygon
   style="fill:black;fill-rule:nonzero;stroke:none;stroke-width:6.84000015;stroke-linecap:butt;stroke-linejoin:miter"
   points="74.4,432.89 74.4,432.89 74.4,432.71 80.88,429.47 83.22,439.01 76.92,442.61 76.74,442.61 76.74,442.43 74.4,432.89 "
   id="polygon160"
   transform="translate(-4.92,-5.03)" />
<polygon
   style="fill:black;fill-rule:nonzero;stroke:none;stroke-width:6.84000015;stroke-linecap:butt;stroke-linejoin:miter"
   points="76.92,442.61 76.74,442.61 76.74,442.43 83.04,438.65 85.74,447.83 79.44,452.15 79.44,451.97 79.44,451.79 76.92,442.61 "
   id="polygon162"
   transform="translate(-4.92,-5.03)" />
<polygon
   style="fill:black;fill-rule:nonzero;stroke:none;stroke-width:6.84000015;stroke-linecap:butt;stroke-linejoin:miter"
   points="79.44,452.15 79.44,451.97 79.44,451.79 85.56,447.65 88.44,456.47 82.5,461.33 82.5,461.15 82.32,460.97 79.44,452.15 "
   id="polygon164"
   transform="translate(-4.92,-5.03)" />
<polygon
   style="fill:black;fill-rule:nonzero;stroke:none;stroke-width:6.84000015;stroke-linecap:butt;stroke-linejoin:miter"
   points="82.5,461.33 82.5,461.15 82.32,460.97 88.44,456.29 91.68,464.93 85.74,470.15 85.74,469.97 85.74,469.97 82.5,461.33 "
   id="polygon166"
   transform="translate(-4.92,-5.03)" />
<polygon
   style="fill:black;fill-rule:nonzero;stroke:none;stroke-width:6.84000015;stroke-linecap:butt;stroke-linejoin:miter"
   points="85.74,470.15 85.74,469.97 85.74,469.97 91.5,464.75 94.92,473.21 89.34,478.79 89.34,478.61 89.16,478.61 85.74,470.15 "
   id="polygon168"
   transform="translate(-4.92,-5.03)" />
<polygon
   style="fill:black;fill-rule:nonzero;stroke:none;stroke-width:6.84000015;stroke-linecap:butt;stroke-linejoin:miter"
   points="89.34,478.79 89.34,478.61 89.16,478.61 94.92,472.85 98.7,480.95 93.12,487.07 93.12,486.89 93.12,486.89 89.34,478.79 "
   id="polygon170"
   transform="translate(-4.92,-5.03)" />
<polygon
   style="fill:black;fill-rule:nonzero;stroke:none;stroke-width:6.84000015;stroke-linecap:butt;stroke-linejoin:miter"
   points="93.12,487.07 93.12,486.89 93.12,486.89 98.52,480.77 102.48,488.69 97.26,494.99 97.26,494.99 97.26,494.81 93.12,487.07 "
   id="polygon172"
   transform="translate(-4.92,-5.03)" />
<polygon
   style="fill:black;fill-rule:nonzero;stroke:none;stroke-width:6.84000015;stroke-linecap:butt;stroke-linejoin:miter"
   points="97.26,494.99 97.26,494.99 97.26,494.81 102.48,488.33 106.8,495.89 101.76,502.73 101.58,502.55 101.58,502.55 97.26,494.99 "
   id="polygon174"
   transform="translate(-4.92,-5.03)" />
<polygon
   style="fill:black;fill-rule:nonzero;stroke:none;stroke-width:6.84000015;stroke-linecap:butt;stroke-linejoin:miter"
   points="101.76,502.73 101.58,502.55 101.58,502.55 106.62,495.71 111.12,502.73 106.26,509.93 106.26,509.93 106.26,509.75 101.76,502.73 "
   id="polygon176"
   transform="translate(-4.92,-5.03)" />
<polygon
   style="fill:black;fill-rule:nonzero;stroke:none;stroke-width:6.84000015;stroke-linecap:butt;stroke-linejoin:miter"
   points="106.26,509.93 106.26,509.93 106.26,509.75 110.94,502.55 115.8,509.39 111.12,516.95 111.12,516.95 111.12,516.77 106.26,509.93 "
   id="polygon178"
   transform="translate(-4.92,-5.03)" />
<polygon
   style="fill:black;fill-rule:nonzero;stroke:none;stroke-width:6.84000015;stroke-linecap:butt;stroke-linejoin:miter"
   points="111.12,516.95 111.12,516.95 111.12,516.77 115.62,509.21 120.66,515.69 116.34,523.61 116.16,523.43 116.16,523.43 111.12,516.95 "
   id="polygon180"
   transform="translate(-4.92,-5.03)" />
<polygon
   style="fill:black;fill-rule:nonzero;stroke:none;stroke-width:6.84000015;stroke-linecap:butt;stroke-linejoin:miter"
   points="116.34,523.61 116.16,523.43 116.16,523.43 120.48,515.51 125.7,521.45 121.56,529.73 121.56,529.55 121.56,529.55 116.34,523.61 "
   id="polygon182"
   transform="translate(-4.92,-5.03)" />
<polygon
   style="fill:black;fill-rule:nonzero;stroke:none;stroke-width:6.84000015;stroke-linecap:butt;stroke-linejoin:miter"
   points="121.56,529.73 121.56,529.55 121.56,529.55 125.52,521.27 130.92,526.85 127.14,535.49 127.14,535.31 126.96,535.31 121.56,529.73 "
   id="polygon184"
   transform="translate(-4.92,-5.03)" />
<polygon
   style="fill:black;fill-rule:nonzero;stroke:none;stroke-width:6.84000015;stroke-linecap:butt;stroke-linejoin:miter"
   points="127.14,535.49 127.14,535.31 126.96,535.31 130.74,526.85 136.32,532.07 132.9,540.89 132.9,540.71 132.72,540.71 127.14,535.49 "
   id="polygon186"
   transform="translate(-4.92,-5.03)" />
<polygon
   style="fill:black;fill-rule:nonzero;stroke:none;stroke-width:6.84000015;stroke-linecap:butt;stroke-linejoin:miter"
   points="132.9,540.89 132.9,540.71 132.72,540.71 136.14,531.89 141.9,536.57 138.84,545.75 138.84,545.57 138.66,545.57 132.9,540.89 "
   id="polygon188"
   transform="translate(-4.92,-5.03)" />
<polygon
   style="fill:black;fill-rule:nonzero;stroke:none;stroke-width:6.84000015;stroke-linecap:butt;stroke-linejoin:miter"
   points="138.84,545.75 138.84,545.57 138.66,545.57 141.9,536.57 147.84,540.89 144.96,550.07 144.96,550.07 144.78,550.07 138.84,545.75 "
   id="polygon190"
   transform="translate(-4.92,-5.03)" />
<polygon
   style="fill:black;fill-rule:nonzero;stroke:none;stroke-width:6.84000015;stroke-linecap:butt;stroke-linejoin:miter"
   points="144.96,550.07 144.96,550.07 144.78,550.07 147.66,540.71 153.78,544.67 151.26,554.21 151.26,554.03 151.08,554.03 144.96,550.07 "
   id="polygon192"
   transform="translate(-4.92,-5.03)" />
<polygon
   style="fill:black;fill-rule:nonzero;stroke:none;stroke-width:6.84000015;stroke-linecap:butt;stroke-linejoin:miter"
   points="151.26,554.21 151.26,554.03 151.08,554.03 153.6,544.49 159.9,547.91 157.74,557.63 157.56,557.63 157.56,557.63 151.26,554.21 "
   id="polygon194"
   transform="translate(-4.92,-5.03)" />
<polygon
   style="fill:black;fill-rule:nonzero;stroke:none;stroke-width:6.84000015;stroke-linecap:butt;stroke-linejoin:miter"
   points="157.74,557.63 157.56,557.63 157.56,557.63 159.72,547.91 166.2,550.79 164.4,560.69 164.22,560.69 164.22,560.51 157.74,557.63 "
   id="polygon196"
   transform="translate(-4.92,-5.03)" />
<polygon
   style="fill:black;fill-rule:nonzero;stroke:none;stroke-width:6.84000015;stroke-linecap:butt;stroke-linejoin:miter"
   points="164.4,560.69 164.22,560.69 164.22,560.51 166.02,550.79 172.5,553.13 171.06,563.21 171.06,563.03 170.88,563.03 164.4,560.69 "
   id="polygon198"
   transform="translate(-4.92,-5.03)" />
<polygon
   style="fill:black;fill-rule:nonzero;stroke:none;stroke-width:6.84000015;stroke-linecap:butt;stroke-linejoin:miter"
   points="171.06,563.21 171.06,563.03 170.88,563.03 172.32,553.13 178.98,555.11 177.9,565.01 177.9,565.01 177.72,565.01 171.06,563.21 "
   id="polygon200"
   transform="translate(-4.92,-5.03)" />
<polygon
   style="fill:black;fill-rule:nonzero;stroke:none;stroke-width:6.84000015;stroke-linecap:butt;stroke-linejoin:miter"
   points="177.9,565.01 177.9,565.01 177.72,565.01 178.8,554.93 185.64,556.37 184.92,566.45 184.92,566.45 184.74,566.45 177.9,565.01 "
   id="polygon202"
   transform="translate(-4.92,-5.03)" />
<polygon
   style="fill:black;fill-rule:nonzero;stroke:none;stroke-width:6.84000015;stroke-linecap:butt;stroke-linejoin:miter"
   points="184.92,566.45 184.92,566.45 184.74,566.45 185.46,556.37 192.48,557.27 192.12,567.35 191.94,567.35 191.94,567.35 184.92,566.45 "
   id="polygon204"
   transform="translate(-4.92,-5.03)" />
<polygon
   style="fill:black;fill-rule:nonzero;stroke:none;stroke-width:6.84000015;stroke-linecap:butt;stroke-linejoin:miter"
   points="192.12,567.35 191.94,567.35 191.94,567.35 192.3,557.09 199.32,557.45 199.32,567.71 199.14,567.71 199.14,567.71 192.12,567.35 "
   id="polygon206"
   transform="translate(-4.92,-5.03)" />
<polygon
   style="fill:black;fill-rule:nonzero;stroke:none;stroke-width:6.84000015;stroke-linecap:butt;stroke-linejoin:miter"
   points="199.32,567.71 199.14,567.71 199.14,567.71 199.14,557.45 206.16,557.09 206.52,567.35 206.34,567.35 206.34,567.35 199.32,567.71 "
   id="polygon208"
   transform="translate(-4.92,-5.03)" />
<polygon
   style="fill:black;fill-rule:nonzero;stroke:none;stroke-width:6.84000015;stroke-linecap:butt;stroke-linejoin:miter"
   points="206.52,567.35 206.34,567.35 206.34,567.35 205.98,557.27 212.82,556.37 213.54,566.45 213.54,566.45 213.36,566.45 206.52,567.35 "
   id="polygon210"
   transform="translate(-4.92,-5.03)" />
<polygon
   style="fill:black;fill-rule:nonzero;stroke:none;stroke-width:6.84000015;stroke-linecap:butt;stroke-linejoin:miter"
   points="213.54,566.45 213.54,566.45 213.36,566.45 212.64,556.37 219.48,554.93 220.56,565.01 220.38,565.01 220.38,565.01 213.54,566.45 "
   id="polygon212"
   transform="translate(-4.92,-5.03)" />
<polygon
   style="fill:black;fill-rule:nonzero;stroke:none;stroke-width:6.84000015;stroke-linecap:butt;stroke-linejoin:miter"
   points="220.56,565.01 220.38,565.01 220.38,565.01 219.3,555.11 225.96,553.13 227.4,563.03 227.4,563.03 227.22,563.21 220.56,565.01 "
   id="polygon214"
   transform="translate(-4.92,-5.03)" />
<polygon
   style="fill:black;fill-rule:nonzero;stroke:none;stroke-width:6.84000015;stroke-linecap:butt;stroke-linejoin:miter"
   points="227.4,563.03 227.4,563.03 227.22,563.21 225.78,553.13 232.44,550.79 234.24,560.51 234.06,560.69 234.06,560.69 227.4,563.03 "
   id="polygon216"
   transform="translate(-4.92,-5.03)" />
<polygon
   style="fill:black;fill-rule:nonzero;stroke:none;stroke-width:6.84000015;stroke-linecap:butt;stroke-linejoin:miter"
   points="234.24,560.51 234.06,560.69 234.06,560.69 232.26,550.79 238.56,547.91 240.72,557.63 240.72,557.63 240.54,557.63 234.24,560.51 "
   id="polygon218"
   transform="translate(-4.92,-5.03)" />
<polygon
   style="fill:black;fill-rule:nonzero;stroke:none;stroke-width:6.84000015;stroke-linecap:butt;stroke-linejoin:miter"
   points="240.72,557.63 240.72,557.63 240.54,557.63 238.38,547.91 244.68,544.49 247.2,554.03 247.2,554.03 247.02,554.21 240.72,557.63 "
   id="polygon220"
   transform="translate(-4.92,-5.03)" />
<polygon
   style="fill:black;fill-rule:nonzero;stroke:none;stroke-width:6.84000015;stroke-linecap:butt;stroke-linejoin:miter"
   points="247.2,554.03 247.2,554.03 247.02,554.21 244.5,544.67 250.62,540.71 253.5,550.07 253.5,550.07 253.32,550.07 247.2,554.03 "
   id="polygon222"
   transform="translate(-4.92,-5.03)" />
<polygon
   style="fill:black;fill-rule:nonzero;stroke:none;stroke-width:6.84000015;stroke-linecap:butt;stroke-linejoin:miter"
   points="253.5,550.07 253.5,550.07 253.32,550.07 250.62,540.89 256.56,536.57 259.62,545.57 259.62,545.57 259.44,545.75 253.5,550.07 "
   id="polygon224"
   transform="translate(-4.92,-5.03)" />
<polygon
   style="fill:black;fill-rule:nonzero;stroke:none;stroke-width:6.84000015;stroke-linecap:butt;stroke-linejoin:miter"
   points="259.62,545.57 259.62,545.57 259.44,545.75 256.38,536.57 262.14,531.89 265.56,540.71 265.56,540.71 265.38,540.89 259.62,545.57 "
   id="polygon226"
   transform="translate(-4.92,-5.03)" />
<polygon
   style="fill:black;fill-rule:nonzero;stroke:none;stroke-width:6.84000015;stroke-linecap:butt;stroke-linejoin:miter"
   points="265.56,540.71 265.56,540.71 265.38,540.89 261.96,532.07 267.54,526.85 271.32,535.31 271.14,535.31 271.14,535.49 265.56,540.71 "
   id="polygon228"
   transform="translate(-4.92,-5.03)" />
<polygon
   style="fill:black;fill-rule:nonzero;stroke:none;stroke-width:6.84000015;stroke-linecap:butt;stroke-linejoin:miter"
   points="271.32,535.31 271.14,535.31 271.14,535.49 267.36,526.85 272.76,521.27 276.9,529.55 276.72,529.55 276.72,529.73 271.32,535.31 "
   id="polygon230"
   transform="translate(-4.92,-5.03)" />
<polygon
   style="fill:black;fill-rule:nonzero;stroke:none;stroke-width:6.84000015;stroke-linecap:butt;stroke-linejoin:miter"
   points="276.9,529.55 276.72,529.55 276.72,529.73 272.76,521.45 277.8,515.51 282.12,523.43 282.12,523.43 281.94,523.61 276.9,529.55 "
   id="polygon232"
   transform="translate(-4.92,-5.03)" />
<polygon
   style="fill:black;fill-rule:nonzero;stroke:none;stroke-width:6.84000015;stroke-linecap:butt;stroke-linejoin:miter"
   points="282.12,523.43 282.12,523.43 281.94,523.61 277.8,515.69 282.66,509.21 287.34,516.77 287.16,516.95 287.16,516.95 282.12,523.43 "
   id="polygon234"
   transform="translate(-4.92,-5.03)" />
<polygon
   style="fill:black;fill-rule:nonzero;stroke:none;stroke-width:6.84000015;stroke-linecap:butt;stroke-linejoin:miter"
   points="287.34,516.77 287.16,516.95 287.16,516.95 282.66,509.39 287.34,502.55 292.2,509.75 292.02,509.93 292.02,509.93 287.34,516.77 "
   id="polygon236"
   transform="translate(-4.92,-5.03)" />
<polygon
   style="fill:black;fill-rule:nonzero;stroke:none;stroke-width:6.84000015;stroke-linecap:butt;stroke-linejoin:miter"
   points="292.2,509.75 292.02,509.93 292.02,509.93 287.16,502.73 291.66,495.71 296.7,502.55 296.7,502.55 296.7,502.73 292.2,509.75 "
   id="polygon238"
   transform="translate(-4.92,-5.03)" />
<polygon
   style="fill:black;fill-rule:nonzero;stroke:none;stroke-width:6.84000015;stroke-linecap:butt;stroke-linejoin:miter"
   points="296.7,502.55 296.7,502.55 296.7,502.73 291.66,495.89 295.8,488.33 301.2,494.81 301.02,494.99 301.02,494.99 296.7,502.55 "
   id="polygon240"
   transform="translate(-4.92,-5.03)" />
<polygon
   style="fill:black;fill-rule:nonzero;stroke:none;stroke-width:6.84000015;stroke-linecap:butt;stroke-linejoin:miter"
   points="301.2,494.81 301.02,494.99 301.02,494.99 295.8,488.69 299.76,480.77 305.34,486.89 305.16,486.89 305.16,487.07 301.2,494.81 "
   id="polygon242"
   transform="translate(-4.92,-5.03)" />
<polygon
   style="fill:black;fill-rule:nonzero;stroke:none;stroke-width:6.84000015;stroke-linecap:butt;stroke-linejoin:miter"
   points="305.34,486.89 305.16,486.89 305.16,487.07 299.76,480.95 303.36,472.85 309.12,478.61 309.12,478.61 308.94,478.79 305.34,486.89 "
   id="polygon244"
   transform="translate(-4.92,-5.03)" />
<polygon
   style="fill:black;fill-rule:nonzero;stroke:none;stroke-width:6.84000015;stroke-linecap:butt;stroke-linejoin:miter"
   points="309.12,478.61 309.12,478.61 308.94,478.79 303.36,473.21 306.78,464.75 312.72,469.97 312.54,469.97 312.54,470.15 309.12,478.61 "
   id="polygon246"
   transform="translate(-4.92,-5.03)" />
<polygon
   style="fill:black;fill-rule:nonzero;stroke:none;stroke-width:6.84000015;stroke-linecap:butt;stroke-linejoin:miter"
   points="312.72,469.97 312.54,469.97 312.54,470.15 306.78,464.93 309.84,456.29 315.96,460.97 315.96,461.15 315.78,461.33 312.72,469.97 "
   id="polygon248"
   transform="translate(-4.92,-5.03)" />
<polygon
   style="fill:black;fill-rule:nonzero;stroke:none;stroke-width:6.84000015;stroke-linecap:butt;stroke-linejoin:miter"
   points="315.96,460.97 315.96,461.15 315.78,461.33 309.84,456.47 312.72,447.65 318.84,451.79 318.84,451.97 318.84,452.15 315.96,460.97 "
   id="polygon250"
   transform="translate(-4.92,-5.03)" />
<polygon
   style="fill:black;fill-rule:nonzero;stroke:none;stroke-width:6.84000015;stroke-linecap:butt;stroke-linejoin:miter"
   points="318.84,451.79 318.84,451.97 318.84,452.15 312.72,447.83 315.24,438.65 321.54,442.43 321.54,442.61 321.54,442.61 318.84,451.79 "
   id="polygon252"
   transform="translate(-4.92,-5.03)" />
<polygon
   style="fill:black;fill-rule:nonzero;stroke:none;stroke-width:6.84000015;stroke-linecap:butt;stroke-linejoin:miter"
   points="321.54,442.43 321.54,442.61 321.54,442.61 315.24,439.01 317.4,429.47 323.88,432.71 323.88,432.89 323.88,432.89 321.54,442.43 "
   id="polygon254"
   transform="translate(-4.92,-5.03)" />
<polygon
   style="fill:black;fill-rule:nonzero;stroke:none;stroke-width:6.84000015;stroke-linecap:butt;stroke-linejoin:miter"
   points="323.88,432.71 323.88,432.89 323.88,432.89 317.4,429.83 319.38,420.11 325.86,422.81 325.86,422.99 325.86,422.99 323.88,432.71 "
   id="polygon256"
   transform="translate(-4.92,-5.03)" />
<polygon
   style="fill:black;fill-rule:nonzero;stroke:none;stroke-width:6.84000015;stroke-linecap:butt;stroke-linejoin:miter"
   points="325.86,422.81 325.86,422.99 325.86,422.99 319.2,420.29 320.82,410.57 327.48,412.73 327.48,412.91 327.48,412.91 325.86,422.81 "
   id="polygon258"
   transform="translate(-4.92,-5.03)" />
<polygon
   style="fill:black;fill-rule:nonzero;stroke:none;stroke-width:6.84000015;stroke-linecap:butt;stroke-linejoin:miter"
   points="327.48,412.73 327.48,412.91 327.48,412.91 320.82,410.75 322.08,400.67 328.92,402.29 328.92,402.47 328.74,402.65 327.48,412.73 "
   id="polygon260"
   transform="translate(-4.92,-5.03)" />
<polygon
   style="fill:black;fill-rule:nonzero;stroke:none;stroke-width:6.84000015;stroke-linecap:butt;stroke-linejoin:miter"
   points="328.92,402.29 328.92,402.47 328.74,402.65 322.08,401.03 322.98,390.77 329.82,391.85 329.82,392.03 329.82,392.21 328.92,402.29 "
   id="polygon262"
   transform="translate(-4.92,-5.03)" />
<polygon
   style="fill:black;fill-rule:nonzero;stroke:none;stroke-width:6.84000015;stroke-linecap:butt;stroke-linejoin:miter"
   points="329.82,391.85 329.82,392.03 329.82,392.21 322.98,391.13 323.52,380.69 330.36,381.23 330.36,381.41 330.36,381.41 329.82,391.85 "
   id="polygon264"
   transform="translate(-4.92,-5.03)" />
<polygon
   style="fill:black;fill-rule:nonzero;stroke:none;stroke-width:6.84000015;stroke-linecap:butt;stroke-linejoin:miter"
   points="330.36,381.23 330.36,381.41 330.36,381.41 323.52,380.87 323.7,370.43 330.54,370.43 330.54,370.61 330.54,370.61 330.36,381.23 "
   id="polygon266"
   transform="translate(-4.92,-5.03)" />
<path
   style="fill:black;fill-rule:nonzero;stroke:none;stroke-width:6.84000015;stroke-linecap:butt;stroke-linejoin:miter"
   d="M 338.22,365.58 C 338.22,356.76 331.02,349.56 322.2,349.56 C 313.38,349.56 306.18,356.76 306.18,365.58 C 306.18,374.4 313.38,381.6 322.2,381.6 C 331.02,381.6 338.22,374.4 338.22,365.58 z "
   id="Elektron2"
   inkscape:label="Elektron2" />
<path
   style="fill:black;fill-rule:nonzero;stroke:none;stroke-width:6.84000015;stroke-linecap:butt;stroke-linejoin:miter"
   d="M 300.78,229.68 C 300.78,220.86 293.58,213.84 284.76,213.84 C 275.94,213.84 268.74,220.86 268.74,229.68 C 268.74,238.68 275.94,245.7 284.76,245.7 C 293.58,245.7 300.78,238.68 300.78,229.68 z "
   id="Elektron1"
   inkscape:label="Elektron1" />
<path
   style="fill:black;fill-rule:nonzero;stroke:none;stroke-width:6.84000015;stroke-linecap:butt;stroke-linejoin:miter"
   d="M 210.24,173.52 C 210.24,164.7 203.04,157.5 194.22,157.5 C 185.4,157.5 178.2,164.7 178.2,173.52 C 178.2,182.34 185.4,189.54 194.22,189.54 C 203.04,189.54 210.24,182.34 210.24,173.52 z "
   id="Elektron8"
   inkscape:label="Elektron8" />
<path
   style="fill:black;fill-rule:nonzero;stroke:none;stroke-width:6.84000015;stroke-linecap:butt;stroke-linejoin:miter"
   d="M 120.24,229.68 C 120.24,220.86 113.04,213.84 104.22,213.84 C 95.4,213.84 88.2,220.86 88.2,229.68 C 88.2,238.68 95.4,245.7 104.22,245.7 C 113.04,245.7 120.24,238.68 120.24,229.68 z "
   id="Elektron7"
   inkscape:label="Elektron7" />
<path
   style="fill:black;fill-rule:nonzero;stroke:none;stroke-width:6.84000015;stroke-linecap:butt;stroke-linejoin:miter"
   d="M 82.26,365.58 C 82.26,356.76 75.06,349.56 66.24,349.56 C 57.42,349.56 50.22,356.76 50.22,365.58 C 50.22,374.4 57.42,381.6 66.24,381.6 C 75.06,381.6 82.26,374.4 82.26,365.58 z "
   id="Elektron6"
   inkscape:label="Elektron6" />
<path
   style="fill:black;fill-rule:nonzero;stroke:none;stroke-width:6.84000015;stroke-linecap:butt;stroke-linejoin:miter"
   d="M 120.24,501.3 C 120.24,492.48 113.04,485.28 104.22,485.28 C 95.4,485.28 88.2,492.48 88.2,501.3 C 88.2,510.12 95.4,517.32 104.22,517.32 C 113.04,517.32 120.24,510.12 120.24,501.3 z "
   id="Elektron5"
   inkscape:label="Elektron5" />
<path
   style="fill:black;fill-rule:nonzero;stroke:none;stroke-width:6.84000015;stroke-linecap:butt;stroke-linejoin:miter"
   d="M 210.24,557.46 C 210.24,548.64 203.04,541.44 194.22,541.44 C 185.4,541.44 178.2,548.64 178.2,557.46 C 178.2,566.28 185.4,573.48 194.22,573.48 C 203.04,573.48 210.24,566.28 210.24,557.46 z "
   id="Elektron4"
   inkscape:label="Elektron4" />
<path
   style="fill:black;fill-rule:nonzero;stroke:none;stroke-width:6.84000015;stroke-linecap:butt;stroke-linejoin:miter"
   d="M 300.78,501.3 C 300.78,492.48 293.58,485.28 284.76,485.28 C 275.94,485.28 268.74,492.48 268.74,501.3 C 268.74,510.12 275.94,517.32 284.76,517.32 C 293.58,517.32 300.78,510.12 300.78,501.3 z "
   id="Elektron3"
   inkscape:label="Elektron3" />














</svg>