<?xml version="1.0" encoding="UTF-8" standalone="no"?>
<!-- Generated by Visual Integrity Suite 6.5.3 -->
<svg
   xmlns:dc="http://purl.org/dc/elements/1.1/"
   xmlns:cc="http://web.resource.org/cc/"
   xmlns:rdf="http://www.w3.org/1999/02/22-rdf-syntax-ns#"
   xmlns:svg="http://www.w3.org/2000/svg"
   xmlns="http://www.w3.org/2000/svg"
   xmlns:sodipodi="http://sodipodi.sourceforge.net/DTD/sodipodi-0.dtd"
   xmlns:inkscape="http://www.inkscape.org/namespaces/inkscape"
   xml:space="preserve"
   width="166.40mm"
   height="261.42mm"
   viewBox="0 0 471.69 741.03"
   id="svg2"
   sodipodi:version="0.32"
   inkscape:version="0.44+devel"
   sodipodi:docname="rflogo.svg"
   inkscape:output_extension="org.inkscape.output.svg.inkscape"
   sodipodi:docbase="/tmp/pdf/TGC"
   sodipodi:modified="true"><metadata
   id="metadata315"><rdf:RDF><cc:Work
       rdf:about=""><dc:format>image/svg+xml</dc:format><dc:type
         rdf:resource="http://purl.org/dc/dcmitype/StillImage" /></cc:Work></rdf:RDF></metadata><defs
   id="defs313" /><sodipodi:namedview
   inkscape:window-height="948"
   inkscape:window-width="1272"
   inkscape:pageshadow="2"
   inkscape:pageopacity="0.0"
   guidetolerance="10.0"
   gridtolerance="10.0"
   objecttolerance="10.0"
   borderopacity="1.0"
   bordercolor="#666666"
   pagecolor="#ffffff"
   id="base"
   inkscape:zoom="1.0769268"
   inkscape:cx="294.80313"
   inkscape:cy="480.85859"
   inkscape:window-x="0"
   inkscape:window-y="0"
   inkscape:current-layer="svg2" />
<path
   style="fill:none;  fill-rule:nonzero; stroke:#000000; stroke-width:6.84; stroke-linecap:butt; stroke-linejoin:miter"
   d="M 223.08 370.61 C 223.08 357.29 212.46 346.49 199.14 346.49 C 185.82 346.49 175.20 357.29 175.20 370.61   C 175.20 383.75 185.82 394.55 199.14 394.55 C 212.46 394.55 223.08 383.75 223.08 370.61 Z"
   id="path4" />
<path
   style="fill:black;fill-rule:nonzero;stroke:none;stroke-width:6.84000015;stroke-linecap:butt;stroke-linejoin:miter"
   d="M 215.89957,240.11 C 226.15957,240.11 233.53957,246.95 233.53957,254.33 C 233.53957,262.07 226.15957,265.85 220.03957,265.85 C 213.19957,265.85 212.11957,259.73 207.43957,259.73 C 204.91957,259.73 202.39957,260.99 202.39957,268.73 C 202.39957,268.73 207.25957,325.79 207.43957,342.89 L 207.25957,410.75 C 206.71957,444.41 201.67957,483.65 191.95957,494.63 C 186.73957,500.57 177.01957,501.83 174.67957,501.83 C 164.41957,501.83 159.55957,491.21 159.55957,486.35 C 159.55957,481.31 164.95957,475.37 171.07957,475.37 C 178.09957,475.37 181.15957,483.83 184.39957,483.83 C 190.51957,483.83 191.41957,465.65 191.41957,458.45 C 191.41957,440.81 189.61957,423.35 189.61957,406.25 L 189.61957,323.45 C 189.61957,264.59 198.79957,240.11 215.89957,240.11 z "
   id="path6" />
<polygon
   style="fill:#000000;  fill-rule:nonzero; stroke:none; stroke-width:6.84; stroke-linecap:butt; stroke-linejoin:miter"
   points="12.66,228.23 4.92,226.61 4.92,225.71 5.64,224.81   205.62,8.81 209.22,5.03 212.64,8.81 212.64,12.23   12.66,228.23 "
   id="polygon8" />
<polygon
   style="fill:#000000;  fill-rule:nonzero; stroke:none; stroke-width:6.84; stroke-linecap:butt; stroke-linejoin:miter"
   points="205.62,12.23 205.62,8.81 209.22,5.03 212.64,8.81   412.62,224.81 413.34,225.71 413.34,226.61 405.60,228.23   205.62,12.23 "
   id="polygon10" />
<polygon
   style="fill:#000000;  fill-rule:nonzero; stroke:none; stroke-width:6.84; stroke-linecap:butt; stroke-linejoin:miter"
   points="404.88,226.61 412.62,224.81 413.34,225.71 413.34,226.61   413.34,514.61 413.34,515.51 412.62,516.23 404.88,514.61   404.88,226.61 "
   id="polygon12" />
<polygon
   style="fill:#000000;  fill-rule:nonzero; stroke:none; stroke-width:6.84; stroke-linecap:butt; stroke-linejoin:miter"
   points="405.60,512.81 413.34,514.61 413.34,515.51 412.62,516.23   212.64,732.23 209.22,736.01 205.62,732.23 205.62,728.81   405.60,512.81 "
   id="polygon14" />
<polygon
   style="fill:#000000;  fill-rule:nonzero; stroke:none; stroke-width:6.84; stroke-linecap:butt; stroke-linejoin:miter"
   points="212.64,728.81 212.64,732.23 209.22,736.01 205.62,732.23   5.64,516.23 4.92,515.51 4.92,514.61 12.66,512.81   212.64,728.81 "
   id="polygon16" />
<polygon
   style="fill:#000000;  fill-rule:nonzero; stroke:none; stroke-width:6.84; stroke-linecap:butt; stroke-linejoin:miter"
   points="13.38,514.61 5.64,516.23 4.92,515.51 4.92,514.61   4.92,226.61 4.92,225.71 5.64,224.81 13.38,226.61   13.38,514.61 "
   id="polygon18" />
<polygon
   style="fill:#000000;  fill-rule:nonzero; stroke:none; stroke-width:6.84; stroke-linecap:butt; stroke-linejoin:miter"
   points="12.66,271.43 5.64,268.01 225.60,30.41 232.62,33.83   12.66,271.43 "
   id="polygon20" />
<polygon
   style="fill:#000000;  fill-rule:nonzero; stroke:none; stroke-width:6.84; stroke-linecap:butt; stroke-linejoin:miter"
   points="5.64,473.03 12.66,469.61 232.62,707.21 225.60,710.63   5.64,473.03 "
   id="polygon22" />
<polygon
   style="fill:#000000;  fill-rule:nonzero; stroke:none; stroke-width:6.84; stroke-linecap:butt; stroke-linejoin:miter"
   points="372.84,192.05 381.48,192.05 381.48,192.05 381.48,549.17   372.84,549.17 372.84,549.17 372.84,192.05 "
   id="polygon24" />
<polygon
   style="fill:#000000;  fill-rule:nonzero; stroke:none; stroke-width:6.84; stroke-linecap:butt; stroke-linejoin:miter"
   points="381.48,549.17 372.84,549.17 372.84,549.17 372.84,192.05   381.48,192.05 381.48,192.05 381.48,549.17 "
   id="polygon26" />
<polygon
   style="fill:#000000;  fill-rule:nonzero; stroke:none; stroke-width:6.84; stroke-linecap:butt; stroke-linejoin:miter"
   points="330.54,370.43 330.54,370.61 330.54,370.61 323.70,370.61   323.52,360.17 330.36,359.63 330.36,359.81 330.36,359.81   330.54,370.43 "
   id="polygon28" />
<polygon
   style="fill:#000000;  fill-rule:nonzero; stroke:none; stroke-width:6.84; stroke-linecap:butt; stroke-linejoin:miter"
   points="330.36,359.63 330.36,359.81 330.36,359.81 323.52,360.35   322.98,350.09 329.82,349.01 329.82,349.01 329.82,349.19   330.36,359.63 "
   id="polygon30" />
<polygon
   style="fill:#000000;  fill-rule:nonzero; stroke:none; stroke-width:6.84; stroke-linecap:butt; stroke-linejoin:miter"
   points="329.82,349.01 329.82,349.01 329.82,349.19 322.98,350.27   322.08,340.01 328.74,338.39 328.92,338.57 328.92,338.75   329.82,349.01 "
   id="polygon32" />
<polygon
   style="fill:#000000;  fill-rule:nonzero; stroke:none; stroke-width:6.84; stroke-linecap:butt; stroke-linejoin:miter"
   points="328.74,338.39 328.92,338.57 328.92,338.75 322.08,340.37   320.82,330.29 327.48,328.13 327.48,328.31 327.48,328.49   328.74,338.39 "
   id="polygon34" />
<polygon
   style="fill:#000000;  fill-rule:nonzero; stroke:none; stroke-width:6.84; stroke-linecap:butt; stroke-linejoin:miter"
   points="327.48,328.13 327.48,328.31 327.48,328.49 320.82,330.65   319.20,320.75 325.86,318.05 325.86,318.23 325.86,318.23   327.48,328.13 "
   id="polygon36" />
<polygon
   style="fill:#000000;  fill-rule:nonzero; stroke:none; stroke-width:6.84; stroke-linecap:butt; stroke-linejoin:miter"
   points="325.86,318.05 325.86,318.23 325.86,318.23 319.38,320.93   317.40,311.39 323.88,308.15 323.88,308.33 323.88,308.33   325.86,318.05 "
   id="polygon38" />
<polygon
   style="fill:#000000;  fill-rule:nonzero; stroke:none; stroke-width:6.84; stroke-linecap:butt; stroke-linejoin:miter"
   points="323.88,308.15 323.88,308.33 323.88,308.33 317.40,311.57   315.24,302.21 321.54,298.43 321.54,298.61 321.54,298.79   323.88,308.15 "
   id="polygon40" />
<polygon
   style="fill:#000000;  fill-rule:nonzero; stroke:none; stroke-width:6.84; stroke-linecap:butt; stroke-linejoin:miter"
   points="321.54,298.43 321.54,298.61 321.54,298.79 315.24,302.39   312.72,293.21 318.84,289.07 318.84,289.07 318.84,289.25   321.54,298.43 "
   id="polygon42" />
<polygon
   style="fill:#000000;  fill-rule:nonzero; stroke:none; stroke-width:6.84; stroke-linecap:butt; stroke-linejoin:miter"
   points="318.84,289.07 318.84,289.07 318.84,289.25 312.72,293.57   309.84,284.57 315.78,279.89 315.96,279.89 315.96,280.07   318.84,289.07 "
   id="polygon44" />
<polygon
   style="fill:#000000;  fill-rule:nonzero; stroke:none; stroke-width:6.84; stroke-linecap:butt; stroke-linejoin:miter"
   points="315.78,279.89 315.96,279.89 315.96,280.07 309.84,284.75   306.78,276.11 312.54,270.89 312.54,271.07 312.72,271.25   315.78,279.89 "
   id="polygon46" />
<polygon
   style="fill:#000000;  fill-rule:nonzero; stroke:none; stroke-width:6.84; stroke-linecap:butt; stroke-linejoin:miter"
   points="312.54,270.89 312.54,271.07 312.72,271.25 306.78,276.29   303.36,268.01 308.94,262.43 309.12,262.43 309.12,262.61   312.54,270.89 "
   id="polygon48" />
<polygon
   style="fill:#000000;  fill-rule:nonzero; stroke:none; stroke-width:6.84; stroke-linecap:butt; stroke-linejoin:miter"
   points="308.94,262.43 309.12,262.43 309.12,262.61 303.36,268.19   299.76,260.09 305.16,253.97 305.16,254.15 305.34,254.33   308.94,262.43 "
   id="polygon50" />
<polygon
   style="fill:#000000;  fill-rule:nonzero; stroke:none; stroke-width:6.84; stroke-linecap:butt; stroke-linejoin:miter"
   points="305.16,253.97 305.16,254.15 305.34,254.33 299.76,260.27   295.80,252.53 301.02,246.05 301.02,246.23 301.20,246.23   305.16,253.97 "
   id="polygon52" />
<polygon
   style="fill:#000000;  fill-rule:nonzero; stroke:none; stroke-width:6.84; stroke-linecap:butt; stroke-linejoin:miter"
   points="301.02,246.05 301.02,246.23 301.20,246.23 295.80,252.71   291.66,245.15 296.70,238.31 296.70,238.49 296.70,238.67   301.02,246.05 "
   id="polygon54" />
<polygon
   style="fill:#000000;  fill-rule:nonzero; stroke:none; stroke-width:6.84; stroke-linecap:butt; stroke-linejoin:miter"
   points="296.70,238.31 296.70,238.49 296.70,238.67 291.66,245.51   287.16,238.31 292.02,231.11 292.02,231.11 292.20,231.29   296.70,238.31 "
   id="polygon56" />
<polygon
   style="fill:#000000;  fill-rule:nonzero; stroke:none; stroke-width:6.84; stroke-linecap:butt; stroke-linejoin:miter"
   points="292.02,231.11 292.02,231.11 292.20,231.29 287.34,238.49   282.66,231.65 287.16,224.09 287.16,224.27 287.34,224.27   292.02,231.11 "
   id="polygon58" />
<polygon
   style="fill:#000000;  fill-rule:nonzero; stroke:none; stroke-width:6.84; stroke-linecap:butt; stroke-linejoin:miter"
   points="287.16,224.09 287.16,224.27 287.34,224.27 282.66,231.83   277.80,225.53 281.94,217.61 282.12,217.61 282.12,217.79   287.16,224.09 "
   id="polygon60" />
<polygon
   style="fill:#000000;  fill-rule:nonzero; stroke:none; stroke-width:6.84; stroke-linecap:butt; stroke-linejoin:miter"
   points="281.94,217.61 282.12,217.61 282.12,217.79 277.80,225.71   272.76,219.59 276.72,211.49 276.72,211.49 276.90,211.49   281.94,217.61 "
   id="polygon62" />
<polygon
   style="fill:#000000;  fill-rule:nonzero; stroke:none; stroke-width:6.84; stroke-linecap:butt; stroke-linejoin:miter"
   points="276.72,211.49 276.72,211.49 276.90,211.49 272.76,219.77   267.36,214.19 271.14,205.73 271.14,205.73 271.32,205.73   276.72,211.49 "
   id="polygon64" />
<polygon
   style="fill:#000000;  fill-rule:nonzero; stroke:none; stroke-width:6.84; stroke-linecap:butt; stroke-linejoin:miter"
   points="271.14,205.73 271.14,205.73 271.32,205.73 267.54,214.37   261.96,209.15 265.38,200.33 265.56,200.33 265.56,200.51   271.14,205.73 "
   id="polygon66" />
<polygon
   style="fill:#000000;  fill-rule:nonzero; stroke:none; stroke-width:6.84; stroke-linecap:butt; stroke-linejoin:miter"
   points="265.38,200.33 265.56,200.33 265.56,200.51 262.14,209.15   256.38,204.47 259.44,195.47 259.62,195.47 259.62,195.47   265.38,200.33 "
   id="polygon68" />
<polygon
   style="fill:#000000;  fill-rule:nonzero; stroke:none; stroke-width:6.84; stroke-linecap:butt; stroke-linejoin:miter"
   points="259.44,195.47 259.62,195.47 259.62,195.47 256.56,204.65   250.62,200.15 253.32,190.97 253.50,190.97 253.50,190.97   259.44,195.47 "
   id="polygon70" />
<polygon
   style="fill:#000000;  fill-rule:nonzero; stroke:none; stroke-width:6.84; stroke-linecap:butt; stroke-linejoin:miter"
   points="253.32,190.97 253.50,190.97 253.50,190.97 250.62,200.33   244.50,196.37 247.02,187.01 247.20,187.01 247.20,187.01   253.32,190.97 "
   id="polygon72" />
<polygon
   style="fill:#000000;  fill-rule:nonzero; stroke:none; stroke-width:6.84; stroke-linecap:butt; stroke-linejoin:miter"
   points="247.02,187.01 247.20,187.01 247.20,187.01 244.68,196.55   238.38,193.13 240.54,183.41 240.72,183.41 240.72,183.59   247.02,187.01 "
   id="polygon74" />
<polygon
   style="fill:#000000;  fill-rule:nonzero; stroke:none; stroke-width:6.84; stroke-linecap:butt; stroke-linejoin:miter"
   points="240.54,183.41 240.72,183.41 240.72,183.59 238.56,193.13   232.26,190.25 234.06,180.53 234.06,180.53 234.24,180.53   240.54,183.41 "
   id="polygon76" />
<polygon
   style="fill:#000000;  fill-rule:nonzero; stroke:none; stroke-width:6.84; stroke-linecap:butt; stroke-linejoin:miter"
   points="234.06,180.53 234.06,180.53 234.24,180.53 232.44,190.43   225.78,187.91 227.22,178.01 227.40,178.01 227.40,178.01   234.06,180.53 "
   id="polygon78" />
<polygon
   style="fill:#000000;  fill-rule:nonzero; stroke:none; stroke-width:6.84; stroke-linecap:butt; stroke-linejoin:miter"
   points="227.22,178.01 227.40,178.01 227.40,178.01 225.96,187.91   219.30,186.11 220.38,176.03 220.38,176.03 220.56,176.03   227.22,178.01 "
   id="polygon80" />
<polygon
   style="fill:#000000;  fill-rule:nonzero; stroke:none; stroke-width:6.84; stroke-linecap:butt; stroke-linejoin:miter"
   points="220.38,176.03 220.38,176.03 220.56,176.03 219.48,186.11   212.64,184.67 213.36,174.59 213.54,174.59 213.54,174.59   220.38,176.03 "
   id="polygon82" />
<polygon
   style="fill:#000000;  fill-rule:nonzero; stroke:none; stroke-width:6.84; stroke-linecap:butt; stroke-linejoin:miter"
   points="213.36,174.59 213.54,174.59 213.54,174.59 212.82,184.67   205.98,183.95 206.34,173.69 206.34,173.69 206.52,173.69   213.36,174.59 "
   id="polygon84" />
<polygon
   style="fill:#000000;  fill-rule:nonzero; stroke:none; stroke-width:6.84; stroke-linecap:butt; stroke-linejoin:miter"
   points="206.34,173.69 206.34,173.69 206.52,173.69 206.16,183.95   199.14,183.59 199.14,173.51 199.14,173.51 199.32,173.51   206.34,173.69 "
   id="polygon86" />
<polygon
   style="fill:#000000;  fill-rule:nonzero; stroke:none; stroke-width:6.84; stroke-linecap:butt; stroke-linejoin:miter"
   points="199.14,173.51 199.14,173.51 199.32,173.51 199.32,183.59   192.30,183.95 191.94,173.69 191.94,173.69 192.12,173.69   199.14,173.51 "
   id="polygon88" />
<polygon
   style="fill:#000000;  fill-rule:nonzero; stroke:none; stroke-width:6.84; stroke-linecap:butt; stroke-linejoin:miter"
   points="191.94,173.69 191.94,173.69 192.12,173.69 192.48,183.95   185.46,184.67 184.74,174.59 184.92,174.59 184.92,174.59   191.94,173.69 "
   id="polygon90" />
<polygon
   style="fill:#000000;  fill-rule:nonzero; stroke:none; stroke-width:6.84; stroke-linecap:butt; stroke-linejoin:miter"
   points="184.74,174.59 184.92,174.59 184.92,174.59 185.64,184.67   178.80,186.11 177.72,176.03 177.90,176.03 177.90,176.03   184.74,174.59 "
   id="polygon92" />
<polygon
   style="fill:#000000;  fill-rule:nonzero; stroke:none; stroke-width:6.84; stroke-linecap:butt; stroke-linejoin:miter"
   points="177.72,176.03 177.90,176.03 177.90,176.03 178.98,186.11   172.32,187.91 170.88,178.01 171.06,178.01 171.06,178.01   177.72,176.03 "
   id="polygon94" />
<polygon
   style="fill:#000000;  fill-rule:nonzero; stroke:none; stroke-width:6.84; stroke-linecap:butt; stroke-linejoin:miter"
   points="170.88,178.01 171.06,178.01 171.06,178.01 172.50,187.91   166.02,190.43 164.22,180.53 164.22,180.53 164.40,180.53   170.88,178.01 "
   id="polygon96" />
<polygon
   style="fill:#000000;  fill-rule:nonzero; stroke:none; stroke-width:6.84; stroke-linecap:butt; stroke-linejoin:miter"
   points="164.22,180.53 164.22,180.53 164.40,180.53 166.20,190.25   159.72,193.13 157.56,183.59 157.56,183.41 157.74,183.41   164.22,180.53 "
   id="polygon98" />
<polygon
   style="fill:#000000;  fill-rule:nonzero; stroke:none; stroke-width:6.84; stroke-linecap:butt; stroke-linejoin:miter"
   points="157.56,183.59 157.56,183.41 157.74,183.41 159.90,193.13   153.60,196.55 151.08,187.01 151.26,187.01 151.26,187.01   157.56,183.59 "
   id="polygon100" />
<polygon
   style="fill:#000000;  fill-rule:nonzero; stroke:none; stroke-width:6.84; stroke-linecap:butt; stroke-linejoin:miter"
   points="151.08,187.01 151.26,187.01 151.26,187.01 153.78,196.37   147.66,200.33 144.78,190.97 144.96,190.97 144.96,190.97   151.08,187.01 "
   id="polygon102" />
<polygon
   style="fill:#000000;  fill-rule:nonzero; stroke:none; stroke-width:6.84; stroke-linecap:butt; stroke-linejoin:miter"
   points="144.78,190.97 144.96,190.97 144.96,190.97 147.84,200.15   141.90,204.65 138.66,195.47 138.84,195.47 138.84,195.47   144.78,190.97 "
   id="polygon104" />
<polygon
   style="fill:#000000;  fill-rule:nonzero; stroke:none; stroke-width:6.84; stroke-linecap:butt; stroke-linejoin:miter"
   points="138.66,195.47 138.84,195.47 138.84,195.47 141.90,204.47   136.14,209.15 132.72,200.51 132.90,200.33 132.90,200.33   138.66,195.47 "
   id="polygon106" />
<polygon
   style="fill:#000000;  fill-rule:nonzero; stroke:none; stroke-width:6.84; stroke-linecap:butt; stroke-linejoin:miter"
   points="132.72,200.51 132.90,200.33 132.90,200.33 136.32,209.15   130.74,214.37 126.96,205.73 127.14,205.73 127.14,205.73   132.72,200.51 "
   id="polygon108" />
<polygon
   style="fill:#000000;  fill-rule:nonzero; stroke:none; stroke-width:6.84; stroke-linecap:butt; stroke-linejoin:miter"
   points="126.96,205.73 127.14,205.73 127.14,205.73 130.92,214.19   125.52,219.77 121.56,211.49 121.56,211.49 121.56,211.49   126.96,205.73 "
   id="polygon110" />
<polygon
   style="fill:#000000;  fill-rule:nonzero; stroke:none; stroke-width:6.84; stroke-linecap:butt; stroke-linejoin:miter"
   points="121.56,211.49 121.56,211.49 121.56,211.49 125.70,219.59   120.48,225.71 116.16,217.79 116.16,217.61 116.34,217.61   121.56,211.49 "
   id="polygon112" />
<polygon
   style="fill:#000000;  fill-rule:nonzero; stroke:none; stroke-width:6.84; stroke-linecap:butt; stroke-linejoin:miter"
   points="116.16,217.79 116.16,217.61 116.34,217.61 120.66,225.53   115.62,231.83 111.12,224.27 111.12,224.27 111.12,224.09   116.16,217.79 "
   id="polygon114" />
<polygon
   style="fill:#000000;  fill-rule:nonzero; stroke:none; stroke-width:6.84; stroke-linecap:butt; stroke-linejoin:miter"
   points="111.12,224.27 111.12,224.27 111.12,224.09 115.80,231.65   110.94,238.49 106.26,231.29 106.26,231.11 106.26,231.11   111.12,224.27 "
   id="polygon116" />
<polygon
   style="fill:#000000;  fill-rule:nonzero; stroke:none; stroke-width:6.84; stroke-linecap:butt; stroke-linejoin:miter"
   points="106.26,231.29 106.26,231.11 106.26,231.11 111.12,238.31   106.62,245.51 101.58,238.67 101.58,238.49 101.76,238.31   106.26,231.29 "
   id="polygon118" />
<polygon
   style="fill:#000000;  fill-rule:nonzero; stroke:none; stroke-width:6.84; stroke-linecap:butt; stroke-linejoin:miter"
   points="101.58,238.67 101.58,238.49 101.76,238.31 106.80,245.15   102.48,252.71 97.26,246.23 97.26,246.23 97.26,246.05   101.58,238.67 "
   id="polygon120" />
<polygon
   style="fill:#000000;  fill-rule:nonzero; stroke:none; stroke-width:6.84; stroke-linecap:butt; stroke-linejoin:miter"
   points="97.26,246.23 97.26,246.23 97.26,246.05 102.48,252.53   98.52,260.27 93.12,254.33 93.12,254.15 93.12,253.97   97.26,246.23 "
   id="polygon122" />
<polygon
   style="fill:#000000;  fill-rule:nonzero; stroke:none; stroke-width:6.84; stroke-linecap:butt; stroke-linejoin:miter"
   points="93.12,254.33 93.12,254.15 93.12,253.97 98.70,260.09   94.92,268.19 89.16,262.61 89.34,262.43 89.34,262.43   93.12,254.33 "
   id="polygon124" />
<polygon
   style="fill:#000000;  fill-rule:nonzero; stroke:none; stroke-width:6.84; stroke-linecap:butt; stroke-linejoin:miter"
   points="89.16,262.61 89.34,262.43 89.34,262.43 94.92,268.01   91.50,276.29 85.74,271.25 85.74,271.07 85.74,270.89   89.16,262.61 "
   id="polygon126" />
<polygon
   style="fill:#000000;  fill-rule:nonzero; stroke:none; stroke-width:6.84; stroke-linecap:butt; stroke-linejoin:miter"
   points="85.74,271.25 85.74,271.07 85.74,270.89 91.68,276.11   88.44,284.75 82.32,280.07 82.50,279.89 82.50,279.89   85.74,271.25 "
   id="polygon128" />
<polygon
   style="fill:#000000;  fill-rule:nonzero; stroke:none; stroke-width:6.84; stroke-linecap:butt; stroke-linejoin:miter"
   points="82.32,280.07 82.50,279.89 82.50,279.89 88.44,284.57   85.56,293.57 79.44,289.25 79.44,289.07 79.44,289.07   82.32,280.07 "
   id="polygon130" />
<polygon
   style="fill:#000000;  fill-rule:nonzero; stroke:none; stroke-width:6.84; stroke-linecap:butt; stroke-linejoin:miter"
   points="79.44,289.25 79.44,289.07 79.44,289.07 85.74,293.21   83.04,302.39 76.74,298.79 76.74,298.61 76.92,298.43   79.44,289.25 "
   id="polygon132" />
<polygon
   style="fill:#000000;  fill-rule:nonzero; stroke:none; stroke-width:6.84; stroke-linecap:butt; stroke-linejoin:miter"
   points="76.74,298.79 76.74,298.61 76.92,298.43 83.22,302.21   80.88,311.57 74.40,308.33 74.40,308.33 74.40,308.15   76.74,298.79 "
   id="polygon134" />
<polygon
   style="fill:#000000;  fill-rule:nonzero; stroke:none; stroke-width:6.84; stroke-linecap:butt; stroke-linejoin:miter"
   points="74.40,308.33 74.40,308.33 74.40,308.15 80.88,311.39   78.90,320.93 72.42,318.23 72.42,318.23 72.42,318.05   74.40,308.33 "
   id="polygon136" />
<polygon
   style="fill:#000000;  fill-rule:nonzero; stroke:none; stroke-width:6.84; stroke-linecap:butt; stroke-linejoin:miter"
   points="72.42,318.23 72.42,318.23 72.42,318.05 79.08,320.75   77.46,330.65 70.80,328.49 70.80,328.31 70.80,328.13   72.42,318.23 "
   id="polygon138" />
<polygon
   style="fill:#000000;  fill-rule:nonzero; stroke:none; stroke-width:6.84; stroke-linecap:butt; stroke-linejoin:miter"
   points="70.80,328.49 70.80,328.31 70.80,328.13 77.46,330.29   76.20,340.37 69.54,338.75 69.54,338.57 69.54,338.39   70.80,328.49 "
   id="polygon140" />
<polygon
   style="fill:#000000;  fill-rule:nonzero; stroke:none; stroke-width:6.84; stroke-linecap:butt; stroke-linejoin:miter"
   points="69.54,338.75 69.54,338.57 69.54,338.39 76.20,340.01   75.30,350.27 68.46,349.19 68.46,349.01 68.46,349.01   69.54,338.75 "
   id="polygon142" />
<polygon
   style="fill:#000000;  fill-rule:nonzero; stroke:none; stroke-width:6.84; stroke-linecap:butt; stroke-linejoin:miter"
   points="68.46,349.19 68.46,349.01 68.46,349.01 75.30,350.09   74.76,360.35 67.92,359.81 67.92,359.81 67.92,359.63   68.46,349.19 "
   id="polygon144" />
<polygon
   style="fill:#000000;  fill-rule:nonzero; stroke:none; stroke-width:6.84; stroke-linecap:butt; stroke-linejoin:miter"
   points="67.92,359.81 67.92,359.81 67.92,359.63 74.76,360.17   74.58,370.61 67.74,370.61 67.74,370.61 67.74,370.43   67.92,359.81 "
   id="polygon146" />
<polygon
   style="fill:#000000;  fill-rule:nonzero; stroke:none; stroke-width:6.84; stroke-linecap:butt; stroke-linejoin:miter"
   points="67.74,370.61 67.74,370.61 67.74,370.43 74.58,370.43   74.76,380.87 67.92,381.41 67.92,381.41 67.92,381.23   67.74,370.61 "
   id="polygon148" />
<polygon
   style="fill:#000000;  fill-rule:nonzero; stroke:none; stroke-width:6.84; stroke-linecap:butt; stroke-linejoin:miter"
   points="67.92,381.41 67.92,381.41 67.92,381.23 74.76,380.69   75.30,391.13 68.46,392.21 68.46,392.03 68.46,391.85   67.92,381.41 "
   id="polygon150" />
<polygon
   style="fill:#000000;  fill-rule:nonzero; stroke:none; stroke-width:6.84; stroke-linecap:butt; stroke-linejoin:miter"
   points="68.46,392.21 68.46,392.03 68.46,391.85 75.30,390.77   76.20,401.03 69.54,402.65 69.54,402.47 69.54,402.29   68.46,392.21 "
   id="polygon152" />
<polygon
   style="fill:#000000;  fill-rule:nonzero; stroke:none; stroke-width:6.84; stroke-linecap:butt; stroke-linejoin:miter"
   points="69.54,402.65 69.54,402.47 69.54,402.29 76.20,400.67   77.46,410.75 70.80,412.91 70.80,412.91 70.80,412.73   69.54,402.65 "
   id="polygon154" />
<polygon
   style="fill:#000000;  fill-rule:nonzero; stroke:none; stroke-width:6.84; stroke-linecap:butt; stroke-linejoin:miter"
   points="70.80,412.91 70.80,412.91 70.80,412.73 77.46,410.57   79.08,420.29 72.42,422.99 72.42,422.99 72.42,422.81   70.80,412.91 "
   id="polygon156" />
<polygon
   style="fill:#000000;  fill-rule:nonzero; stroke:none; stroke-width:6.84; stroke-linecap:butt; stroke-linejoin:miter"
   points="72.42,422.99 72.42,422.99 72.42,422.81 78.90,420.11   80.88,429.83 74.40,432.89 74.40,432.89 74.40,432.71   72.42,422.99 "
   id="polygon158" />
<polygon
   style="fill:#000000;  fill-rule:nonzero; stroke:none; stroke-width:6.84; stroke-linecap:butt; stroke-linejoin:miter"
   points="74.40,432.89 74.40,432.89 74.40,432.71 80.88,429.47   83.22,439.01 76.92,442.61 76.74,442.61 76.74,442.43   74.40,432.89 "
   id="polygon160" />
<polygon
   style="fill:#000000;  fill-rule:nonzero; stroke:none; stroke-width:6.84; stroke-linecap:butt; stroke-linejoin:miter"
   points="76.92,442.61 76.74,442.61 76.74,442.43 83.04,438.65   85.74,447.83 79.44,452.15 79.44,451.97 79.44,451.79   76.92,442.61 "
   id="polygon162" />
<polygon
   style="fill:#000000;  fill-rule:nonzero; stroke:none; stroke-width:6.84; stroke-linecap:butt; stroke-linejoin:miter"
   points="79.44,452.15 79.44,451.97 79.44,451.79 85.56,447.65   88.44,456.47 82.50,461.33 82.50,461.15 82.32,460.97   79.44,452.15 "
   id="polygon164" />
<polygon
   style="fill:#000000;  fill-rule:nonzero; stroke:none; stroke-width:6.84; stroke-linecap:butt; stroke-linejoin:miter"
   points="82.50,461.33 82.50,461.15 82.32,460.97 88.44,456.29   91.68,464.93 85.74,470.15 85.74,469.97 85.74,469.97   82.50,461.33 "
   id="polygon166" />
<polygon
   style="fill:#000000;  fill-rule:nonzero; stroke:none; stroke-width:6.84; stroke-linecap:butt; stroke-linejoin:miter"
   points="85.74,470.15 85.74,469.97 85.74,469.97 91.50,464.75   94.92,473.21 89.34,478.79 89.34,478.61 89.16,478.61   85.74,470.15 "
   id="polygon168" />
<polygon
   style="fill:#000000;  fill-rule:nonzero; stroke:none; stroke-width:6.84; stroke-linecap:butt; stroke-linejoin:miter"
   points="89.34,478.79 89.34,478.61 89.16,478.61 94.92,472.85   98.70,480.95 93.12,487.07 93.12,486.89 93.12,486.89   89.34,478.79 "
   id="polygon170" />
<polygon
   style="fill:#000000;  fill-rule:nonzero; stroke:none; stroke-width:6.84; stroke-linecap:butt; stroke-linejoin:miter"
   points="93.12,487.07 93.12,486.89 93.12,486.89 98.52,480.77   102.48,488.69 97.26,494.99 97.26,494.99 97.26,494.81   93.12,487.07 "
   id="polygon172" />
<polygon
   style="fill:#000000;  fill-rule:nonzero; stroke:none; stroke-width:6.84; stroke-linecap:butt; stroke-linejoin:miter"
   points="97.26,494.99 97.26,494.99 97.26,494.81 102.48,488.33   106.80,495.89 101.76,502.73 101.58,502.55 101.58,502.55   97.26,494.99 "
   id="polygon174" />
<polygon
   style="fill:#000000;  fill-rule:nonzero; stroke:none; stroke-width:6.84; stroke-linecap:butt; stroke-linejoin:miter"
   points="101.76,502.73 101.58,502.55 101.58,502.55 106.62,495.71   111.12,502.73 106.26,509.93 106.26,509.93 106.26,509.75   101.76,502.73 "
   id="polygon176" />
<polygon
   style="fill:#000000;  fill-rule:nonzero; stroke:none; stroke-width:6.84; stroke-linecap:butt; stroke-linejoin:miter"
   points="106.26,509.93 106.26,509.93 106.26,509.75 110.94,502.55   115.80,509.39 111.12,516.95 111.12,516.95 111.12,516.77   106.26,509.93 "
   id="polygon178" />
<polygon
   style="fill:#000000;  fill-rule:nonzero; stroke:none; stroke-width:6.84; stroke-linecap:butt; stroke-linejoin:miter"
   points="111.12,516.95 111.12,516.95 111.12,516.77 115.62,509.21   120.66,515.69 116.34,523.61 116.16,523.43 116.16,523.43   111.12,516.95 "
   id="polygon180" />
<polygon
   style="fill:#000000;  fill-rule:nonzero; stroke:none; stroke-width:6.84; stroke-linecap:butt; stroke-linejoin:miter"
   points="116.34,523.61 116.16,523.43 116.16,523.43 120.48,515.51   125.70,521.45 121.56,529.73 121.56,529.55 121.56,529.55   116.34,523.61 "
   id="polygon182" />
<polygon
   style="fill:#000000;  fill-rule:nonzero; stroke:none; stroke-width:6.84; stroke-linecap:butt; stroke-linejoin:miter"
   points="121.56,529.73 121.56,529.55 121.56,529.55 125.52,521.27   130.92,526.85 127.14,535.49 127.14,535.31 126.96,535.31   121.56,529.73 "
   id="polygon184" />
<polygon
   style="fill:#000000;  fill-rule:nonzero; stroke:none; stroke-width:6.84; stroke-linecap:butt; stroke-linejoin:miter"
   points="127.14,535.49 127.14,535.31 126.96,535.31 130.74,526.85   136.32,532.07 132.90,540.89 132.90,540.71 132.72,540.71   127.14,535.49 "
   id="polygon186" />
<polygon
   style="fill:#000000;  fill-rule:nonzero; stroke:none; stroke-width:6.84; stroke-linecap:butt; stroke-linejoin:miter"
   points="132.90,540.89 132.90,540.71 132.72,540.71 136.14,531.89   141.90,536.57 138.84,545.75 138.84,545.57 138.66,545.57   132.90,540.89 "
   id="polygon188" />
<polygon
   style="fill:#000000;  fill-rule:nonzero; stroke:none; stroke-width:6.84; stroke-linecap:butt; stroke-linejoin:miter"
   points="138.84,545.75 138.84,545.57 138.66,545.57 141.90,536.57   147.84,540.89 144.96,550.07 144.96,550.07 144.78,550.07   138.84,545.75 "
   id="polygon190" />
<polygon
   style="fill:#000000;  fill-rule:nonzero; stroke:none; stroke-width:6.84; stroke-linecap:butt; stroke-linejoin:miter"
   points="144.96,550.07 144.96,550.07 144.78,550.07 147.66,540.71   153.78,544.67 151.26,554.21 151.26,554.03 151.08,554.03   144.96,550.07 "
   id="polygon192" />
<polygon
   style="fill:#000000;  fill-rule:nonzero; stroke:none; stroke-width:6.84; stroke-linecap:butt; stroke-linejoin:miter"
   points="151.26,554.21 151.26,554.03 151.08,554.03 153.60,544.49   159.90,547.91 157.74,557.63 157.56,557.63 157.56,557.63   151.26,554.21 "
   id="polygon194" />
<polygon
   style="fill:#000000;  fill-rule:nonzero; stroke:none; stroke-width:6.84; stroke-linecap:butt; stroke-linejoin:miter"
   points="157.74,557.63 157.56,557.63 157.56,557.63 159.72,547.91   166.20,550.79 164.40,560.69 164.22,560.69 164.22,560.51   157.74,557.63 "
   id="polygon196" />
<polygon
   style="fill:#000000;  fill-rule:nonzero; stroke:none; stroke-width:6.84; stroke-linecap:butt; stroke-linejoin:miter"
   points="164.40,560.69 164.22,560.69 164.22,560.51 166.02,550.79   172.50,553.13 171.06,563.21 171.06,563.03 170.88,563.03   164.40,560.69 "
   id="polygon198" />
<polygon
   style="fill:#000000;  fill-rule:nonzero; stroke:none; stroke-width:6.84; stroke-linecap:butt; stroke-linejoin:miter"
   points="171.06,563.21 171.06,563.03 170.88,563.03 172.32,553.13   178.98,555.11 177.90,565.01 177.90,565.01 177.72,565.01   171.06,563.21 "
   id="polygon200" />
<polygon
   style="fill:#000000;  fill-rule:nonzero; stroke:none; stroke-width:6.84; stroke-linecap:butt; stroke-linejoin:miter"
   points="177.90,565.01 177.90,565.01 177.72,565.01 178.80,554.93   185.64,556.37 184.92,566.45 184.92,566.45 184.74,566.45   177.90,565.01 "
   id="polygon202" />
<polygon
   style="fill:#000000;  fill-rule:nonzero; stroke:none; stroke-width:6.84; stroke-linecap:butt; stroke-linejoin:miter"
   points="184.92,566.45 184.92,566.45 184.74,566.45 185.46,556.37   192.48,557.27 192.12,567.35 191.94,567.35 191.94,567.35   184.92,566.45 "
   id="polygon204" />
<polygon
   style="fill:#000000;  fill-rule:nonzero; stroke:none; stroke-width:6.84; stroke-linecap:butt; stroke-linejoin:miter"
   points="192.12,567.35 191.94,567.35 191.94,567.35 192.30,557.09   199.32,557.45 199.32,567.71 199.14,567.71 199.14,567.71   192.12,567.35 "
   id="polygon206" />
<polygon
   style="fill:#000000;  fill-rule:nonzero; stroke:none; stroke-width:6.84; stroke-linecap:butt; stroke-linejoin:miter"
   points="199.32,567.71 199.14,567.71 199.14,567.71 199.14,557.45   206.16,557.09 206.52,567.35 206.34,567.35 206.34,567.35   199.32,567.71 "
   id="polygon208" />
<polygon
   style="fill:#000000;  fill-rule:nonzero; stroke:none; stroke-width:6.84; stroke-linecap:butt; stroke-linejoin:miter"
   points="206.52,567.35 206.34,567.35 206.34,567.35 205.98,557.27   212.82,556.37 213.54,566.45 213.54,566.45 213.36,566.45   206.52,567.35 "
   id="polygon210" />
<polygon
   style="fill:#000000;  fill-rule:nonzero; stroke:none; stroke-width:6.84; stroke-linecap:butt; stroke-linejoin:miter"
   points="213.54,566.45 213.54,566.45 213.36,566.45 212.64,556.37   219.48,554.93 220.56,565.01 220.38,565.01 220.38,565.01   213.54,566.45 "
   id="polygon212" />
<polygon
   style="fill:#000000;  fill-rule:nonzero; stroke:none; stroke-width:6.84; stroke-linecap:butt; stroke-linejoin:miter"
   points="220.56,565.01 220.38,565.01 220.38,565.01 219.30,555.11   225.96,553.13 227.40,563.03 227.40,563.03 227.22,563.21   220.56,565.01 "
   id="polygon214" />
<polygon
   style="fill:#000000;  fill-rule:nonzero; stroke:none; stroke-width:6.84; stroke-linecap:butt; stroke-linejoin:miter"
   points="227.40,563.03 227.40,563.03 227.22,563.21 225.78,553.13   232.44,550.79 234.24,560.51 234.06,560.69 234.06,560.69   227.40,563.03 "
   id="polygon216" />
<polygon
   style="fill:#000000;  fill-rule:nonzero; stroke:none; stroke-width:6.84; stroke-linecap:butt; stroke-linejoin:miter"
   points="234.24,560.51 234.06,560.69 234.06,560.69 232.26,550.79   238.56,547.91 240.72,557.63 240.72,557.63 240.54,557.63   234.24,560.51 "
   id="polygon218" />
<polygon
   style="fill:#000000;  fill-rule:nonzero; stroke:none; stroke-width:6.84; stroke-linecap:butt; stroke-linejoin:miter"
   points="240.72,557.63 240.72,557.63 240.54,557.63 238.38,547.91   244.68,544.49 247.20,554.03 247.20,554.03 247.02,554.21   240.72,557.63 "
   id="polygon220" />
<polygon
   style="fill:#000000;  fill-rule:nonzero; stroke:none; stroke-width:6.84; stroke-linecap:butt; stroke-linejoin:miter"
   points="247.20,554.03 247.20,554.03 247.02,554.21 244.50,544.67   250.62,540.71 253.50,550.07 253.50,550.07 253.32,550.07   247.20,554.03 "
   id="polygon222" />
<polygon
   style="fill:#000000;  fill-rule:nonzero; stroke:none; stroke-width:6.84; stroke-linecap:butt; stroke-linejoin:miter"
   points="253.50,550.07 253.50,550.07 253.32,550.07 250.62,540.89   256.56,536.57 259.62,545.57 259.62,545.57 259.44,545.75   253.50,550.07 "
   id="polygon224" />
<polygon
   style="fill:#000000;  fill-rule:nonzero; stroke:none; stroke-width:6.84; stroke-linecap:butt; stroke-linejoin:miter"
   points="259.62,545.57 259.62,545.57 259.44,545.75 256.38,536.57   262.14,531.89 265.56,540.71 265.56,540.71 265.38,540.89   259.62,545.57 "
   id="polygon226" />
<polygon
   style="fill:#000000;  fill-rule:nonzero; stroke:none; stroke-width:6.84; stroke-linecap:butt; stroke-linejoin:miter"
   points="265.56,540.71 265.56,540.71 265.38,540.89 261.96,532.07   267.54,526.85 271.32,535.31 271.14,535.31 271.14,535.49   265.56,540.71 "
   id="polygon228" />
<polygon
   style="fill:#000000;  fill-rule:nonzero; stroke:none; stroke-width:6.84; stroke-linecap:butt; stroke-linejoin:miter"
   points="271.32,535.31 271.14,535.31 271.14,535.49 267.36,526.85   272.76,521.27 276.90,529.55 276.72,529.55 276.72,529.73   271.32,535.31 "
   id="polygon230" />
<polygon
   style="fill:#000000;  fill-rule:nonzero; stroke:none; stroke-width:6.84; stroke-linecap:butt; stroke-linejoin:miter"
   points="276.90,529.55 276.72,529.55 276.72,529.73 272.76,521.45   277.80,515.51 282.12,523.43 282.12,523.43 281.94,523.61   276.90,529.55 "
   id="polygon232" />
<polygon
   style="fill:#000000;  fill-rule:nonzero; stroke:none; stroke-width:6.84; stroke-linecap:butt; stroke-linejoin:miter"
   points="282.12,523.43 282.12,523.43 281.94,523.61 277.80,515.69   282.66,509.21 287.34,516.77 287.16,516.95 287.16,516.95   282.12,523.43 "
   id="polygon234" />
<polygon
   style="fill:#000000;  fill-rule:nonzero; stroke:none; stroke-width:6.84; stroke-linecap:butt; stroke-linejoin:miter"
   points="287.34,516.77 287.16,516.95 287.16,516.95 282.66,509.39   287.34,502.55 292.20,509.75 292.02,509.93 292.02,509.93   287.34,516.77 "
   id="polygon236" />
<polygon
   style="fill:#000000;  fill-rule:nonzero; stroke:none; stroke-width:6.84; stroke-linecap:butt; stroke-linejoin:miter"
   points="292.20,509.75 292.02,509.93 292.02,509.93 287.16,502.73   291.66,495.71 296.70,502.55 296.70,502.55 296.70,502.73   292.20,509.75 "
   id="polygon238" />
<polygon
   style="fill:#000000;  fill-rule:nonzero; stroke:none; stroke-width:6.84; stroke-linecap:butt; stroke-linejoin:miter"
   points="296.70,502.55 296.70,502.55 296.70,502.73 291.66,495.89   295.80,488.33 301.20,494.81 301.02,494.99 301.02,494.99   296.70,502.55 "
   id="polygon240" />
<polygon
   style="fill:#000000;  fill-rule:nonzero; stroke:none; stroke-width:6.84; stroke-linecap:butt; stroke-linejoin:miter"
   points="301.20,494.81 301.02,494.99 301.02,494.99 295.80,488.69   299.76,480.77 305.34,486.89 305.16,486.89 305.16,487.07   301.20,494.81 "
   id="polygon242" />
<polygon
   style="fill:#000000;  fill-rule:nonzero; stroke:none; stroke-width:6.84; stroke-linecap:butt; stroke-linejoin:miter"
   points="305.34,486.89 305.16,486.89 305.16,487.07 299.76,480.95   303.36,472.85 309.12,478.61 309.12,478.61 308.94,478.79   305.34,486.89 "
   id="polygon244" />
<polygon
   style="fill:#000000;  fill-rule:nonzero; stroke:none; stroke-width:6.84; stroke-linecap:butt; stroke-linejoin:miter"
   points="309.12,478.61 309.12,478.61 308.94,478.79 303.36,473.21   306.78,464.75 312.72,469.97 312.54,469.97 312.54,470.15   309.12,478.61 "
   id="polygon246" />
<polygon
   style="fill:#000000;  fill-rule:nonzero; stroke:none; stroke-width:6.84; stroke-linecap:butt; stroke-linejoin:miter"
   points="312.72,469.97 312.54,469.97 312.54,470.15 306.78,464.93   309.84,456.29 315.96,460.97 315.96,461.15 315.78,461.33   312.72,469.97 "
   id="polygon248" />
<polygon
   style="fill:#000000;  fill-rule:nonzero; stroke:none; stroke-width:6.84; stroke-linecap:butt; stroke-linejoin:miter"
   points="315.96,460.97 315.96,461.15 315.78,461.33 309.84,456.47   312.72,447.65 318.84,451.79 318.84,451.97 318.84,452.15   315.96,460.97 "
   id="polygon250" />
<polygon
   style="fill:#000000;  fill-rule:nonzero; stroke:none; stroke-width:6.84; stroke-linecap:butt; stroke-linejoin:miter"
   points="318.84,451.79 318.84,451.97 318.84,452.15 312.72,447.83   315.24,438.65 321.54,442.43 321.54,442.61 321.54,442.61   318.84,451.79 "
   id="polygon252" />
<polygon
   style="fill:#000000;  fill-rule:nonzero; stroke:none; stroke-width:6.84; stroke-linecap:butt; stroke-linejoin:miter"
   points="321.54,442.43 321.54,442.61 321.54,442.61 315.24,439.01   317.40,429.47 323.88,432.71 323.88,432.89 323.88,432.89   321.54,442.43 "
   id="polygon254" />
<polygon
   style="fill:#000000;  fill-rule:nonzero; stroke:none; stroke-width:6.84; stroke-linecap:butt; stroke-linejoin:miter"
   points="323.88,432.71 323.88,432.89 323.88,432.89 317.40,429.83   319.38,420.11 325.86,422.81 325.86,422.99 325.86,422.99   323.88,432.71 "
   id="polygon256" />
<polygon
   style="fill:#000000;  fill-rule:nonzero; stroke:none; stroke-width:6.84; stroke-linecap:butt; stroke-linejoin:miter"
   points="325.86,422.81 325.86,422.99 325.86,422.99 319.20,420.29   320.82,410.57 327.48,412.73 327.48,412.91 327.48,412.91   325.86,422.81 "
   id="polygon258" />
<polygon
   style="fill:#000000;  fill-rule:nonzero; stroke:none; stroke-width:6.84; stroke-linecap:butt; stroke-linejoin:miter"
   points="327.48,412.73 327.48,412.91 327.48,412.91 320.82,410.75   322.08,400.67 328.92,402.29 328.92,402.47 328.74,402.65   327.48,412.73 "
   id="polygon260" />
<polygon
   style="fill:#000000;  fill-rule:nonzero; stroke:none; stroke-width:6.84; stroke-linecap:butt; stroke-linejoin:miter"
   points="328.92,402.29 328.92,402.47 328.74,402.65 322.08,401.03   322.98,390.77 329.82,391.85 329.82,392.03 329.82,392.21   328.92,402.29 "
   id="polygon262" />
<polygon
   style="fill:#000000;  fill-rule:nonzero; stroke:none; stroke-width:6.84; stroke-linecap:butt; stroke-linejoin:miter"
   points="329.82,391.85 329.82,392.03 329.82,392.21 322.98,391.13   323.52,380.69 330.36,381.23 330.36,381.41 330.36,381.41   329.82,391.85 "
   id="polygon264" />
<polygon
   style="fill:#000000;  fill-rule:nonzero; stroke:none; stroke-width:6.84; stroke-linecap:butt; stroke-linejoin:miter"
   points="330.36,381.23 330.36,381.41 330.36,381.41 323.52,380.87   323.70,370.43 330.54,370.43 330.54,370.61 330.54,370.61   330.36,381.23 "
   id="polygon266" />
<path
   style="fill:#000000;  fill-rule:nonzero; stroke:none; stroke-width:6.84; stroke-linecap:butt; stroke-linejoin:miter"
   d="M 343.14 370.61 C 343.14 361.79 335.94 354.59 327.12 354.59 C 318.30 354.59 311.10 361.79 311.10 370.61   C 311.10 379.43 318.30 386.63 327.12 386.63 C 335.94 386.63 343.14 379.43 343.14 370.61 Z"
   id="path268" />
<path
   style="fill:#000000;  fill-rule:nonzero; stroke:none; stroke-width:6.84; stroke-linecap:butt; stroke-linejoin:miter"
   d="M 305.70 234.71 C 305.70 225.89 298.50 218.87 289.68 218.87 C 280.86 218.87 273.66 225.89 273.66 234.71   C 273.66 243.71 280.86 250.73 289.68 250.73 C 298.50 250.73 305.70 243.71 305.70 234.71 Z"
   id="path270" />
<path
   style="fill:#000000;  fill-rule:nonzero; stroke:none; stroke-width:6.84; stroke-linecap:butt; stroke-linejoin:miter"
   d="M 215.16 178.55 C 215.16 169.73 207.96 162.53 199.14 162.53 C 190.32 162.53 183.12 169.73 183.12 178.55   C 183.12 187.37 190.32 194.57 199.14 194.57 C 207.96 194.57 215.16 187.37 215.16 178.55 Z"
   id="path272" />
<path
   style="fill:#000000;  fill-rule:nonzero; stroke:none; stroke-width:6.84; stroke-linecap:butt; stroke-linejoin:miter"
   d="M 125.16 234.71 C 125.16 225.89 117.96 218.87 109.14 218.87 C 100.32 218.87 93.12 225.89 93.12 234.71   C 93.12 243.71 100.32 250.73 109.14 250.73 C 117.96 250.73 125.16 243.71 125.16 234.71 Z"
   id="path274" />
<path
   style="fill:#000000;  fill-rule:nonzero; stroke:none; stroke-width:6.84; stroke-linecap:butt; stroke-linejoin:miter"
   d="M 87.18 370.61 C 87.18 361.79 79.98 354.59 71.16 354.59 C 62.34 354.59 55.14 361.79 55.14 370.61   C 55.14 379.43 62.34 386.63 71.16 386.63 C 79.98 386.63 87.18 379.43 87.18 370.61 Z"
   id="path276" />
<path
   style="fill:#000000;  fill-rule:nonzero; stroke:none; stroke-width:6.84; stroke-linecap:butt; stroke-linejoin:miter"
   d="M 125.16 506.33 C 125.16 497.51 117.96 490.31 109.14 490.31 C 100.32 490.31 93.12 497.51 93.12 506.33   C 93.12 515.15 100.32 522.35 109.14 522.35 C 117.96 522.35 125.16 515.15 125.16 506.33 Z"
   id="path278" />
<path
   style="fill:#000000;  fill-rule:nonzero; stroke:none; stroke-width:6.84; stroke-linecap:butt; stroke-linejoin:miter"
   d="M 215.16 562.49 C 215.16 553.67 207.96 546.47 199.14 546.47 C 190.32 546.47 183.12 553.67 183.12 562.49   C 183.12 571.31 190.32 578.51 199.14 578.51 C 207.96 578.51 215.16 571.31 215.16 562.49 Z"
   id="path280" />
<path
   style="fill:#000000;  fill-rule:nonzero; stroke:none; stroke-width:6.84; stroke-linecap:butt; stroke-linejoin:miter"
   d="M 305.70 506.33 C 305.70 497.51 298.50 490.31 289.68 490.31 C 280.86 490.31 273.66 497.51 273.66 506.33   C 273.66 515.15 280.86 522.35 289.68 522.35 C 298.50 522.35 305.70 515.15 305.70 506.33 Z"
   id="path282" />










<polyline
   style="fill:none;  fill-rule:nonzero; stroke:#BFBFBF; stroke-width:0.28; stroke-linecap:butt; stroke-linejoin:miter"
   points="416.76,741.03 0.00,741.03 "
   id="polyline304" />



</svg>