<?xml version="1.0" encoding="UTF-8" standalone="no"?>
<!-- Generated by Visual Integrity Suite 6.5.3 -->
<svg
   xmlns:dc="http://purl.org/dc/elements/1.1/"
   xmlns:cc="http://web.resource.org/cc/"
   xmlns:rdf="http://www.w3.org/1999/02/22-rdf-syntax-ns#"
   xmlns:svg="http://www.w3.org/2000/svg"
   xmlns="http://www.w3.org/2000/svg"
   xmlns:sodipodi="http://sodipodi.sourceforge.net/DTD/sodipodi-0.dtd"
   xmlns:inkscape="http://www.inkscape.org/namespaces/inkscape"
   xml:space="preserve"
   id="svg2"
   sodipodi:version="0.32"
   inkscape:version="0.44+devel"
   sodipodi:docname="rflogo.svg"
   inkscape:output_extension="org.inkscape.output.svg.inkscape"
   sodipodi:docbase="/home/roberth/dokumenter/uio/hs"
   version="1.0"
   width="408.60001"
   sodipodi:modified="true"
   height="730.97998"><metadata
   id="metadata49"><rdf:RDF><cc:Work
       rdf:about=""><dc:format>image/svg+xml</dc:format><dc:type
         rdf:resource="http://purl.org/dc/dcmitype/StillImage" /><dc:title>Realistforeningens logo</dc:title><dc:date>1859-04-18</dc:date><dc:creator><cc:Agent><dc:title>Realistforeningen</dc:title></cc:Agent></dc:creator><dc:rights><cc:Agent><dc:title>Realistforeningen</dc:title></cc:Agent></dc:rights><dc:subject><rdf:Bag><rdf:li>Realistforeningen</rdf:li><rdf:li>RF</rdf:li><rdf:li>logo</rdf:li><rdf:li>benzen</rdf:li><rdf:li>integral</rdf:li><rdf:li>elektronskall</rdf:li></rdf:Bag></dc:subject><dc:description>Realistforeningens logo: En benzenring omringer et elektronskall som omringer et linjeintegraltegn.</dc:description><dc:contributor><cc:Agent><dc:title>Trond Ivar Hulaas: PostScript-versjon
TT: Modifisering
Helge J. Bjørnhaug: Modifisering
Robert Bauck Hamar: Bruke ellipse istedenfor skalert sirkel i elektronskallet.
Robert Bauck Hamar: Håndtegnet integraltegnet.</dc:title></cc:Agent></dc:contributor></cc:Work></rdf:RDF></metadata><defs
   id="defs47" /><sodipodi:namedview
   inkscape:window-height="948"
   inkscape:window-width="1272"
   inkscape:pageshadow="2"
   inkscape:pageopacity="0.0"
   guidetolerance="10.0"
   gridtolerance="10.0"
   objecttolerance="10.0"
   borderopacity="1.0"
   bordercolor="#666666"
   pagecolor="#ffffff"
   id="base"
   inkscape:zoom="0.76150222"
   inkscape:cx="298.98425"
   inkscape:cy="347.80413"
   inkscape:window-x="0"
   inkscape:window-y="0"
   inkscape:current-layer="svg2"
   width="744.09449px"
   height="1052.3622px"
   showgrid="true"
   inkscape:showpageshadow="false" />
<path
   style="fill:none;fill-rule:nonzero;stroke:black;stroke-width:6.84000015;stroke-linecap:butt;stroke-linejoin:miter"
   d="M 218.34,365.58 C 218.34,352.26 207.54001,341.46 194.22,341.46 C 181.08,341.46 170.28,352.26 170.28,365.58 C 170.28,378.72 181.08,389.52 194.22,389.52 C 207.54001,389.52 218.34,378.72 218.34,365.58 z "
   id="path4" />
<path
   style="fill:black;fill-rule:nonzero;stroke:none;stroke-width:6.84000015;stroke-linecap:butt;stroke-linejoin:miter"
   d="M 185.58,365.58 C 185.58,264.78 194.22,235.98 215.82001,235.98 L 215.82001,235.98 C 222.84,235.98 228.78,241.02 230.04001,247.86 C 231.3,254.7 227.34,261.54 220.86001,263.88 C 214.20001,266.22 206.82001,263.52 203.4,257.58 C 194.94,249.66 202.86001,293.58 202.86001,365.58 M 202.86001,365.58 C 202.86001,466.38 194.22,495.18 172.62,495.18 L 172.62,495.18 C 165.60001,495.18 159.66,490.14 158.4,483.3 C 157.32001,476.28 161.10001,469.62 167.76001,467.28 C 174.24,464.76 181.62,467.46 185.22,473.58 C 193.68,481.32 185.58,437.58 185.58,365.58 L 202.86001,365.58 z "
   id="path6" />
<polygon
   style="fill:black;fill-rule:nonzero;stroke:none;stroke-width:6.84000015;stroke-linecap:butt;stroke-linejoin:miter"
   points="12.66,228.23 4.92,226.61 4.92,225.71 5.64,224.81 205.62,8.81 209.22,5.03 212.64,8.81 212.64,12.23 12.66,228.23 "
   id="polygon8"
   transform="translate(-4.92,-5.03)" />
<polygon
   style="fill:black;fill-rule:nonzero;stroke:none;stroke-width:6.84000015;stroke-linecap:butt;stroke-linejoin:miter"
   points="205.62,12.23 205.62,8.81 209.22,5.03 212.64,8.81 412.8,224.81 413.52,225.71 413.52,226.61 405.6,228.23 205.62,12.23 "
   id="polygon10"
   transform="translate(-4.92,-5.03)" />
<polygon
   style="fill:black;fill-rule:nonzero;stroke:none;stroke-width:6.84000015;stroke-linecap:butt;stroke-linejoin:miter"
   points="404.88,226.61 412.8,224.81 413.52,225.71 413.52,226.61 413.52,514.61 413.52,515.51 412.8,516.23 404.88,514.61 404.88,226.61 "
   id="polygon12"
   transform="translate(-4.92,-5.03)" />
<polygon
   style="fill:black;fill-rule:nonzero;stroke:none;stroke-width:6.84000015;stroke-linecap:butt;stroke-linejoin:miter"
   points="405.6,512.81 413.52,514.61 413.52,515.51 412.8,516.23 212.64,732.23 209.22,736.01 205.62,732.23 205.62,728.81 405.6,512.81 "
   id="polygon14"
   transform="translate(-4.92,-5.03)" />
<polygon
   style="fill:black;fill-rule:nonzero;stroke:none;stroke-width:6.84000015;stroke-linecap:butt;stroke-linejoin:miter"
   points="212.64,728.81 212.64,732.23 209.22,736.01 205.62,732.23 5.64,516.23 4.92,515.51 4.92,514.61 12.66,512.81 212.64,728.81 "
   id="polygon16"
   transform="translate(-4.92,-5.03)" />
<polygon
   style="fill:black;fill-rule:nonzero;stroke:none;stroke-width:6.84000015;stroke-linecap:butt;stroke-linejoin:miter"
   points="13.38,514.61 5.64,516.23 4.92,515.51 4.92,514.61 4.92,226.61 4.92,225.71 5.64,224.81 13.38,226.61 13.38,514.61 "
   id="polygon18"
   transform="translate(-4.92,-5.03)" />
<polygon
   style="fill:black;fill-rule:nonzero;stroke:none;stroke-width:6.84000015;stroke-linecap:butt;stroke-linejoin:miter"
   points="12.66,271.43 5.64,268.01 225.6,30.41 232.8,33.83 12.66,271.43 "
   id="polygon20"
   transform="translate(-4.92,-5.03)" />
<polygon
   style="fill:black;fill-rule:nonzero;stroke:none;stroke-width:6.84000015;stroke-linecap:butt;stroke-linejoin:miter"
   points="5.64,473.03 12.66,469.61 232.8,707.21 225.6,710.63 5.64,473.03 "
   id="polygon22"
   transform="translate(-4.92,-5.03)" />
<polygon
   style="fill:black;fill-rule:nonzero;stroke:none;stroke-width:6.84000015;stroke-linecap:butt;stroke-linejoin:miter"
   points="373.02,192.05 381.48,192.05 381.48,192.05 381.48,549.17 373.02,549.17 373.02,549.17 373.02,192.05 "
   id="polygon24"
   transform="translate(-4.92,-5.03)" />
<polygon
   style="fill:black;fill-rule:nonzero;stroke:none;stroke-width:6.84000015;stroke-linecap:butt;stroke-linejoin:miter"
   points="381.48,549.17 373.02,549.17 373.02,549.17 373.02,192.05 381.48,192.05 381.48,192.05 381.48,549.17 "
   id="polygon26"
   transform="translate(-4.92,-5.03)" />
<path
   style="fill:black;fill-rule:nonzero;stroke:none;stroke-width:6.84000015;stroke-linecap:butt;stroke-linejoin:miter"
   d="M 338.22001,365.58 C 338.22001,356.76 331.02,349.56 322.2,349.56 C 313.38,349.56 306.18,356.76 306.18,365.58 C 306.18,374.4 313.38,381.6 322.2,381.6 C 331.02,381.6 338.22001,374.4 338.22001,365.58 z "
   id="path28" />
<path
   style="fill:black;fill-rule:nonzero;stroke:none;stroke-width:6.84000015;stroke-linecap:butt;stroke-linejoin:miter"
   d="M 300.78001,229.86 C 300.78001,220.86 293.58,213.84 284.76,213.84 C 275.94,213.84 268.74,220.86 268.74,229.86 C 268.74,238.68 275.94,245.7 284.76,245.7 C 293.58,245.7 300.78001,238.68 300.78001,229.86 z "
   id="path30" />
<path
   style="fill:black;fill-rule:nonzero;stroke:none;stroke-width:6.84000015;stroke-linecap:butt;stroke-linejoin:miter"
   d="M 210.24,173.52 C 210.24,164.7 203.04001,157.5 194.22,157.5 C 185.4,157.5 178.20001,164.7 178.20001,173.52 C 178.20001,182.34 185.4,189.54 194.22,189.54 C 203.04001,189.54 210.24,182.34 210.24,173.52 z "
   id="path32" />
<path
   style="fill:black;fill-rule:nonzero;stroke:none;stroke-width:6.84000015;stroke-linecap:butt;stroke-linejoin:miter"
   d="M 120.24,229.86 C 120.24,220.86 113.04,213.84 104.22001,213.84 C 95.4,213.84 88.2,220.86 88.2,229.86 C 88.2,238.68 95.4,245.7 104.22001,245.7 C 113.04,245.7 120.24,238.68 120.24,229.86 z "
   id="path34" />
<path
   style="fill:black;fill-rule:nonzero;stroke:none;stroke-width:6.84000015;stroke-linecap:butt;stroke-linejoin:miter"
   d="M 82.26,365.58 C 82.26,356.76 75.06,349.56 66.24,349.56 C 57.420002,349.56 50.220002,356.76 50.220002,365.58 C 50.220002,374.4 57.420002,381.6 66.24,381.6 C 75.06,381.6 82.26,374.4 82.26,365.58 z "
   id="path36" />
<path
   style="fill:black;fill-rule:nonzero;stroke:none;stroke-width:6.84000015;stroke-linecap:butt;stroke-linejoin:miter"
   d="M 120.24,501.3 C 120.24,492.48 113.04,485.28 104.22001,485.28 C 95.4,485.28 88.2,492.48 88.2,501.3 C 88.2,510.12 95.4,517.32 104.22001,517.32 C 113.04,517.32 120.24,510.12 120.24,501.3 z "
   id="path38" />
<path
   style="fill:black;fill-rule:nonzero;stroke:none;stroke-width:6.84000015;stroke-linecap:butt;stroke-linejoin:miter"
   d="M 210.24,557.46 C 210.24,548.64 203.04001,541.62 194.22,541.62 C 185.4,541.62 178.20001,548.64 178.20001,557.46 C 178.20001,566.46 185.4,573.48 194.22,573.48 C 203.04001,573.48 210.24,566.46 210.24,557.46 z "
   id="path40" />
<path
   style="fill:black;fill-rule:nonzero;stroke:none;stroke-width:6.84000015;stroke-linecap:butt;stroke-linejoin:miter"
   d="M 300.78001,501.3 C 300.78001,492.48 293.58,485.28 284.76,485.28 C 275.94,485.28 268.74,492.48 268.74,501.3 C 268.74,510.12 275.94,517.32 284.76,517.32 C 293.58,517.32 300.78001,510.12 300.78001,501.3 z "
   id="path42" />
<path
   style="fill:none;fill-rule:nonzero;stroke:black;stroke-width:6.84000015;stroke-linecap:butt;stroke-linejoin:miter"
   d="M 322.2,365.58 C 322.2,259.56 264.96001,173.52 194.22,173.52 C 123.66,173.52 66.24,259.56 66.24,365.58 C 66.24,471.6 123.66,557.46 194.22,557.46 C 264.96001,557.46 322.2,471.6 322.2,365.58 z "
   id="path44" />
</svg>
